<svg width="28" height="28" viewBox="0 0 28 28" fill="none" xmlns="http://www.w3.org/2000/svg">
<path d="M19.8334 10.5H8.16669C7.85727 10.5 7.56053 10.623 7.34174 10.8417C7.12294 11.0605 7.00003 11.3573 7.00003 11.6667C7.00003 11.9761 7.12294 12.2729 7.34174 12.4917C7.56053 12.7105 7.85727 12.8334 8.16669 12.8334H19.8334C20.1428 12.8334 20.4395 12.7105 20.6583 12.4917C20.8771 12.2729 21 11.9761 21 11.6667C21 11.3573 20.8771 11.0605 20.6583 10.8417C20.4395 10.623 20.1428 10.5 19.8334 10.5ZM15.1667 15.1667H8.16669C7.85727 15.1667 7.56053 15.2896 7.34174 15.5084C7.12294 15.7272 7.00003 16.024 7.00003 16.3334C7.00003 16.6428 7.12294 16.9395 7.34174 17.1583C7.56053 17.3771 7.85727 17.5 8.16669 17.5H15.1667C15.4761 17.5 15.7729 17.3771 15.9917 17.1583C16.2104 16.9395 16.3334 16.6428 16.3334 16.3334C16.3334 16.024 16.2104 15.7272 15.9917 15.5084C15.7729 15.2896 15.4761 15.1667 15.1667 15.1667ZM14 2.33337C12.4679 2.33337 10.9509 2.63514 9.53539 3.22145C8.11992 3.80775 6.8338 4.66711 5.75045 5.75046C3.56252 7.93839 2.33336 10.9058 2.33336 14C2.32316 16.694 3.25595 19.3067 4.97003 21.385L2.63669 23.7184C2.47481 23.8824 2.36515 24.0908 2.32154 24.3171C2.27794 24.5434 2.30235 24.7776 2.39169 24.99C2.48859 25.2 2.64568 25.3764 2.84301 25.4968C3.04035 25.6173 3.26903 25.6764 3.50003 25.6667H14C17.0942 25.6667 20.0617 24.4375 22.2496 22.2496C24.4375 20.0617 25.6667 17.0942 25.6667 14C25.6667 10.9058 24.4375 7.93839 22.2496 5.75046C20.0617 3.56254 17.0942 2.33337 14 2.33337V2.33337ZM14 23.3334H6.31169L7.39669 22.2484C7.61399 22.0298 7.73595 21.7341 7.73595 21.4259C7.73595 21.1177 7.61399 20.822 7.39669 20.6034C5.86904 19.0774 4.91773 17.069 4.70483 14.9203C4.49194 12.7716 5.03063 10.6155 6.22913 8.81948C7.42762 7.02342 9.21178 5.69846 11.2776 5.07034C13.3435 4.44223 15.5632 4.54981 17.5586 5.37477C19.554 6.19973 21.2017 7.69103 22.2209 9.59458C23.2401 11.4981 23.5677 13.6962 23.148 15.8142C22.7283 17.9323 21.5872 19.8393 19.9192 21.2103C18.2511 22.5814 16.1593 23.3317 14 23.3334V23.3334Z" fill="white"/>
</svg>
