<svg width="28" height="21" viewBox="0 0 28 21" fill="none" xmlns="http://www.w3.org/2000/svg">
<path d="M14.4014 10.7718C15.0814 10.2012 15.6268 9.49556 16.0007 8.70267C16.3745 7.90979 16.568 7.04823 16.568 6.17647C16.568 4.53837 15.8966 2.96736 14.7016 1.80905C13.5065 0.650734 11.8857 2.21008e-07 10.1957 2.21008e-07C8.50563 2.21008e-07 6.88481 0.650734 5.68977 1.80905C4.49474 2.96736 3.82337 4.53837 3.82337 6.17647C3.82336 7.04823 4.01684 7.90979 4.39067 8.70267C4.7645 9.49556 5.30993 10.2012 5.98995 10.7718C4.20589 11.5548 2.69225 12.8193 1.63001 14.4141C0.567765 16.0089 0.00187582 17.8664 0 19.7647C0 20.0923 0.134273 20.4065 0.37328 20.6382C0.612287 20.8699 0.936451 21 1.27446 21C1.61247 21 1.93663 20.8699 2.17564 20.6382C2.41464 20.4065 2.54892 20.0923 2.54892 19.7647C2.54892 17.799 3.35455 15.9138 4.7886 14.5238C6.22264 13.1338 8.16762 12.3529 10.1957 12.3529C12.2237 12.3529 14.1687 13.1338 15.6027 14.5238C17.0368 15.9138 17.8424 17.799 17.8424 19.7647C17.8424 20.0923 17.9767 20.4065 18.2157 20.6382C18.4547 20.8699 18.7789 21 19.1169 21C19.4549 21 19.779 20.8699 20.018 20.6382C20.2571 20.4065 20.3913 20.0923 20.3913 19.7647C20.3895 17.8664 19.8236 16.0089 18.7613 14.4141C17.6991 12.8193 16.1854 11.5548 14.4014 10.7718ZM10.1957 9.88235C9.43947 9.88235 8.70026 9.66501 8.07151 9.2578C7.44276 8.85059 6.95271 8.27181 6.66333 7.59465C6.37394 6.91749 6.29823 6.17236 6.44575 5.45349C6.59328 4.73462 6.95742 4.07429 7.49213 3.55602C8.02684 3.03774 8.7081 2.68479 9.44976 2.5418C10.1914 2.3988 10.9602 2.47219 11.6588 2.75268C12.3574 3.03317 12.9546 3.50816 13.3747 4.11759C13.7948 4.72702 14.019 5.44352 14.019 6.17647C14.019 7.15933 13.6162 8.10194 12.8992 8.79693C12.1822 9.49191 11.2097 9.88235 10.1957 9.88235ZM22.6089 10.2776C23.4245 9.38741 23.9573 8.28766 24.1431 7.11077C24.3289 5.93389 24.1598 4.73003 23.6562 3.64412C23.1526 2.5582 22.3359 1.63651 21.3044 0.989993C20.273 0.343474 19.0707 -0.000318212 17.8424 2.21008e-07C17.5044 2.21008e-07 17.1802 0.130147 16.9412 0.361809C16.7022 0.593472 16.568 0.907674 16.568 1.23529C16.568 1.56291 16.7022 1.87712 16.9412 2.10878C17.1802 2.34044 17.5044 2.47059 17.8424 2.47059C18.8564 2.47059 19.8289 2.86103 20.5459 3.55602C21.263 4.251 21.6658 5.19361 21.6658 6.17647C21.664 6.8253 21.4865 7.46229 21.151 8.02376C20.8155 8.58522 20.3338 9.05147 19.7541 9.37588C19.5651 9.48153 19.4073 9.63241 19.2958 9.81409C19.1842 9.99577 19.1226 10.2022 19.1169 10.4135C19.1115 10.6232 19.1614 10.8308 19.2617 11.0167C19.3621 11.2025 19.5096 11.3606 19.6904 11.4759L20.1874 11.7971L20.3531 11.8835C21.8893 12.5898 23.1853 13.7068 24.0885 15.1031C24.9917 16.4994 25.4644 18.1167 25.4509 19.7647C25.4509 20.0923 25.5852 20.4065 25.8242 20.6382C26.0632 20.8699 26.3874 21 26.7254 21C27.0634 21 27.3876 20.8699 27.6266 20.6382C27.8656 20.4065 27.9998 20.0923 27.9998 19.7647C28.0103 17.8691 27.5204 16.0023 26.5769 14.3418C25.6333 12.6814 24.2674 11.2823 22.6089 10.2776Z" fill="white"/>
</svg>
