<?xml version="1.0" encoding="utf-8"?>
<svg viewBox="0 0 500 500" xmlns="http://www.w3.org/2000/svg" xmlns:xlink="http://www.w3.org/1999/xlink">
  <defs>
    <linearGradient id="Gradiente_sem_nome_34" x1="363.05" y1="402.22" x2="130.34" y2="-0.86" gradientUnits="userSpaceOnUse" gradientTransform="matrix(1, 0, 0, 1, 266.368565, 50.463094)">
      <stop offset="0.02" stop-color="#ff263a"/>
      <stop offset="0.53" stop-color="#47c128"/>
      <stop offset="1" stop-color="#00a6e4"/>
    </linearGradient>
    <linearGradient id="Gradiente_sem_nome_34-2" x1="282.23" y1="402.29" x2="69.07" y2="33.09" gradientTransform="matrix(1, 0, 0, 1, 266.368565, 50.463094)" xlink:href="#Gradiente_sem_nome_34"/>
    <linearGradient id="Gradiente_sem_nome_34-3" x1="316.84" y1="403.4" x2="97.6" y2="23.67" gradientTransform="matrix(1, 0, 0, 1, 266.368565, 50.463094)" xlink:href="#Gradiente_sem_nome_34"/>
    <linearGradient id="Gradiente_sem_nome_34-4" x1="258.36" y1="416.46" x2="23.52" y2="9.71" gradientTransform="matrix(1, 0, 0, 1, 266.368565, 50.463094)" xlink:href="#Gradiente_sem_nome_34"/>
    <linearGradient id="Gradiente_sem_nome_34-5" x1="125.46" y1="476.4" x2="-84.29" y2="113.09" gradientTransform="matrix(1, 0, 0, 1, 266.368565, 50.463094)" xlink:href="#Gradiente_sem_nome_34"/>
    <linearGradient id="Gradiente_sem_nome_34-6" x1="278.69" y1="404.24" x2="67.87" y2="39.09" gradientTransform="matrix(1, 0, 0, 1, 266.368565, 50.463094)" xlink:href="#Gradiente_sem_nome_34"/>
    <linearGradient id="Gradiente_sem_nome_34-7" x1="149.57" y1="466.52" x2="-62.05" y2="99.98" gradientTransform="matrix(1, 0, 0, 1, 266.368565, 50.463094)" xlink:href="#Gradiente_sem_nome_34"/>
    <linearGradient id="Gradiente_sem_nome_34-8" x1="275.44" y1="406.34" x2="63.81" y2="39.79" gradientTransform="matrix(1, 0, 0, 1, 266.368565, 50.463094)" xlink:href="#Gradiente_sem_nome_34"/>
    <linearGradient id="Gradiente_sem_nome_34-9" x1="396.25" y1="349.08" x2="184.63" y2="-17.46" gradientTransform="matrix(1, 0, 0, 1, 266.368565, 50.463094)" xlink:href="#Gradiente_sem_nome_34"/>
    <linearGradient id="Gradiente_sem_nome_34-10" x1="232.34" y1="427.35" x2="20.72" y2="60.81" gradientTransform="matrix(1, 0, 0, 1, 266.368565, 50.463094)" xlink:href="#Gradiente_sem_nome_34"/>
    <linearGradient id="Gradiente_sem_nome_34-11" x1="123.71" y1="479.38" x2="-87.92" y2="112.84" gradientTransform="matrix(1, 0, 0, 1, 266.368565, 50.463094)" xlink:href="#Gradiente_sem_nome_34"/>
    <linearGradient id="Gradiente_sem_nome_34-12" x1="397.72" y1="348.95" x2="186.1" y2="-17.6" gradientTransform="matrix(1, 0, 0, 1, 266.368565, 50.463094)" xlink:href="#Gradiente_sem_nome_34"/>
  </defs>
  <title>Asset 2</title>
  <g id="Layer_2" data-name="Layer 2" transform="matrix(1.132342, 0, 0, 1.132342, -252.243256, -50.265102)" style="">
    <g id="Layer_1-2" data-name="Layer 1">
      <path class="cls-1" d="M 382.829 137.403 L 383.039 137.553 C 386.755 140.387 391.788 140.779 395.899 138.553 C 410.262 130.588 426.478 126.568 442.899 126.903 C 459.025 127.186 474.789 131.734 488.589 140.083 C 494.124 143.441 501.328 141.762 504.809 136.303 L 504.939 136.093 C 508.543 130.439 506.781 122.925 501.039 119.463 C 482.936 108.324 462.093 102.438 440.839 102.463 C 420.982 102.481 401.456 107.55 384.099 117.193 C 376.471 121.476 375.797 132.199 382.829 137.403 Z" style="fill: url(#Gradiente_sem_nome_34);"/>
      <path class="cls-2" d="M 530.659 173.953 L 530.419 174.203 C 527.25 177.502 526.286 182.342 527.949 186.603 C 532.472 197.937 534.794 210.03 534.789 222.233 L 534.789 308.403 C 534.789 359.703 494.209 402.663 442.929 403.643 C 390.513 404.593 347.493 362.398 347.429 309.973 L 347.429 220.513 C 347.426 208.356 349.804 196.316 354.429 185.073 C 356.523 180.08 355.073 174.305 350.869 170.893 L 350.679 170.733 C 344.394 165.671 335.005 168.13 332.009 175.623 C 326.118 189.855 323.093 205.11 323.109 220.513 L 323.109 308.183 C 323.109 372.953 374.539 427.003 439.299 427.983 C 505.159 428.936 559.082 375.85 559.159 309.983 L 559.159 222.463 C 559.153 207.089 556.168 191.862 550.369 177.623 C 547.098 169.584 536.603 167.629 530.659 173.953 Z" style="fill: url(#Gradiente_sem_nome_34-2);"/>
      <path class="cls-3" d="M 281.419 247.693 L 281.669 247.693 C 288.125 247.42 293.219 242.106 293.219 235.643 L 293.219 224.643 C 293.219 143.213 358.219 75.643 439.659 74.863 C 521.869 74.073 589.009 140.713 589.009 222.753 L 589.009 252.753 C 589.007 259.467 594.515 264.876 601.229 264.753 L 601.519 264.753 C 608.079 264.66 613.349 259.315 613.349 252.753 L 613.349 222.753 C 613.369 127.163 535.159 49.543 439.369 50.463 C 344.589 51.393 268.869 130.073 268.869 224.903 L 268.869 235.653 C 268.874 242.502 274.575 247.971 281.419 247.693 Z" style="fill: url(#Gradiente_sem_nome_34-3);"/>
      <path class="cls-4" d="M 599.559 318.853 L 599.309 318.853 C 593.319 318.722 588.151 323.028 587.199 328.943 C 576.369 399.283 516.809 454.463 443.649 455.663 C 416.136 456.165 389.035 448.934 365.429 434.793 C 360.103 431.595 353.206 433.129 349.739 438.283 C 349.579 438.533 349.409 438.773 349.249 439.013 C 345.463 444.553 347.097 452.135 352.829 455.623 C 380.462 472.209 412.217 480.656 444.439 479.993 C 529.439 478.383 598.529 414.313 611.219 332.593 C 612.269 325.435 606.793 318.981 599.559 318.853 Z" style="fill: url(#Gradiente_sem_nome_34-4);"/>
      <path class="cls-5" d="M 319.369 406.763 C 322.802 402.637 323.024 396.715 319.909 392.343 C 304.804 370.833 295.742 345.665 293.669 319.463 C 293.291 313.378 288.572 308.456 282.509 307.823 C 275.087 307.205 268.859 313.344 269.369 320.773 C 271.676 351.659 282.328 381.339 300.189 406.643 C 304.617 412.946 313.815 413.342 318.769 407.443 L 319.369 406.763 Z" style="fill: url(#Gradiente_sem_nome_34-5);"/>
      <path class="cls-6" d="M 393.679 318.833 L 393.439 318.833 C 386.778 318.828 381.374 324.223 381.369 330.883 L 381.369 334.973 C 381.369 346.98 391.102 356.713 403.109 356.713 L 443.669 356.713 C 479.153 356.713 507.919 327.947 507.919 292.463 L 507.919 238.033 C 507.924 202.547 479.155 173.778 443.669 173.783 L 403.119 173.783 C 391.112 173.778 381.374 183.506 381.369 195.513 L 381.369 263.153 C 381.373 269.726 386.636 275.088 393.209 275.213 L 393.449 275.213 C 400.201 275.365 405.748 269.917 405.719 263.163 L 405.719 198.163 L 443.669 198.163 C 465.71 198.163 483.579 216.031 483.579 238.073 L 483.579 292.463 C 483.573 314.501 465.706 332.363 443.669 332.363 L 405.729 332.363 L 405.729 330.883 C 405.723 324.23 400.331 318.839 393.679 318.833 Z" style="fill: url(#Gradiente_sem_nome_34-6);"/>
      <path class="cls-7" d="M 278.889 292.133 C 288.526 292.133 294.55 281.7 289.731 273.353 C 284.912 265.006 272.865 265.006 268.046 273.353 C 266.947 275.256 266.369 277.415 266.369 279.613 C 266.369 286.528 271.974 292.133 278.889 292.133 Z" style="fill: url(#Gradiente_sem_nome_34-7);"/>
      <path class="cls-8" d="M 365.369 163.663 C 375.006 163.663 381.03 153.23 376.211 144.883 C 371.392 136.536 359.345 136.536 354.526 144.883 C 353.427 146.786 352.849 148.945 352.849 151.143 C 352.854 158.055 358.456 163.658 365.369 163.663 Z" style="fill: url(#Gradiente_sem_nome_34-8);"/>
      <path class="cls-9" d="M 520.919 166.623 C 530.556 166.6 536.555 156.152 531.716 147.817 C 526.877 139.482 514.83 139.511 510.031 147.869 C 508.942 149.766 508.369 151.916 508.369 154.103 C 508.374 161.027 513.995 166.634 520.919 166.623 Z" style="fill: url(#Gradiente_sem_nome_34-9);"/>
      <path class="cls-10" d="M 393.579 308.233 C 403.216 308.233 409.24 297.8 404.421 289.453 C 399.602 281.106 387.555 281.106 382.736 289.453 C 381.637 291.356 381.059 293.515 381.059 295.713 C 381.064 302.625 386.666 308.228 393.579 308.233 Z" style="fill: url(#Gradiente_sem_nome_34-10);"/>
      <path class="cls-11" d="M 330.519 414.163 C 320.881 414.163 314.857 424.596 319.676 432.943 C 324.495 441.29 336.542 441.29 341.361 432.943 C 342.46 431.04 343.039 428.881 343.039 426.683 C 343.039 419.768 337.433 414.163 330.519 414.163 Z" style="fill: url(#Gradiente_sem_nome_34-11);"/>
      <path class="cls-12" d="M 601.859 279.093 C 592.221 279.085 586.189 289.514 591.001 297.864 C 595.813 306.215 607.861 306.225 612.686 297.882 C 613.788 295.976 614.369 293.814 614.369 291.613 C 614.363 284.705 608.767 279.104 601.859 279.093 Z" style="fill: url(#Gradiente_sem_nome_34-12);"/>
    </g>
  </g>
</svg>