<?xml version="1.0" encoding="utf-8"?>
<svg viewBox="0 0 500 500" xmlns="http://www.w3.org/2000/svg">
  <title>Asset 2</title>
  <g id="Layer_2" data-name="Layer 2" transform="matrix(1, 0, 0, 1, -182.497617, -18.036855)">
    <g id="Layer_1-2" data-name="Layer 1">
      <path class="cls-1" d="M 348.974 128.46 L 349.184 128.61 C 352.9 131.444 357.933 131.836 362.044 129.61 C 376.407 121.645 392.623 117.625 409.044 117.96 C 425.17 118.243 440.934 122.791 454.734 131.14 C 460.269 134.498 467.473 132.819 470.954 127.36 L 471.084 127.15 C 474.688 121.496 472.926 113.982 467.184 110.52 C 449.081 99.381 428.238 93.495 406.984 93.52 C 387.127 93.538 367.601 98.607 350.244 108.25 C 342.616 112.533 341.942 123.257 348.974 128.46 Z" style="fill: rgb(255, 255, 255);"/>
      <path class="cls-2" d="M 496.804 165.01 L 496.564 165.26 C 493.395 168.559 492.431 173.399 494.094 177.66 C 498.617 188.994 500.939 201.087 500.934 213.29 L 500.934 299.46 C 500.934 350.76 460.354 393.72 409.074 394.7 C 356.658 395.65 313.638 353.455 313.574 301.03 L 313.574 211.57 C 313.571 199.413 315.949 187.373 320.574 176.13 C 322.668 171.138 321.218 165.362 317.014 161.95 L 316.824 161.79 C 310.539 156.728 301.15 159.187 298.154 166.68 C 292.263 180.912 289.238 196.167 289.254 211.57 L 289.254 299.24 C 289.254 364.01 340.684 418.06 405.444 419.04 C 471.304 419.994 525.227 366.908 525.304 301.04 L 525.304 213.52 C 525.298 198.146 522.313 182.919 516.514 168.68 C 513.243 160.641 502.748 158.686 496.804 165.01 Z" style="fill: rgb(255, 255, 255);"/>
      <path class="cls-3" d="M 247.564 238.75 L 247.814 238.75 C 254.27 238.477 259.364 233.163 259.364 226.7 L 259.364 215.7 C 259.364 134.27 324.364 66.7 405.804 65.92 C 488.014 65.13 555.154 131.77 555.154 213.81 L 555.154 243.81 C 555.152 250.525 560.66 255.933 567.374 255.81 L 567.664 255.81 C 574.224 255.717 579.494 250.372 579.494 243.81 L 579.494 213.81 C 579.514 118.22 501.304 40.6 405.514 41.52 C 310.734 42.45 235.014 121.13 235.014 215.96 L 235.014 226.71 C 235.019 233.559 240.72 239.029 247.564 238.75 Z" style="fill: rgb(255, 255, 255);"/>
      <path class="cls-4" d="M 565.704 309.91 L 565.454 309.91 C 559.464 309.779 554.296 314.086 553.344 320 C 542.514 390.34 482.954 445.52 409.794 446.72 C 382.281 447.222 355.18 439.991 331.574 425.85 C 326.248 422.652 319.351 424.187 315.884 429.34 C 315.724 429.59 315.554 429.83 315.394 430.07 C 311.608 435.61 313.242 443.192 318.974 446.68 C 346.607 463.266 378.362 471.713 410.584 471.05 C 495.584 469.44 564.674 405.37 577.364 323.65 C 578.414 316.492 572.938 310.039 565.704 309.91 Z" style="fill: rgb(255, 255, 255);"/>
      <path class="cls-5" d="M 285.514 397.82 C 288.947 393.694 289.169 387.772 286.054 383.4 C 270.949 361.89 261.887 336.723 259.814 310.52 C 259.436 304.435 254.717 299.513 248.654 298.88 C 241.232 298.263 235.004 304.401 235.514 311.83 C 237.821 342.717 248.473 372.396 266.334 397.7 C 270.762 404.003 279.96 404.399 284.914 398.5 L 285.514 397.82 Z" style="fill: rgb(255, 255, 255);"/>
      <path class="cls-6" d="M 359.824 309.89 L 359.584 309.89 C 352.923 309.885 347.519 315.28 347.514 321.94 L 347.514 326.03 C 347.514 338.037 357.247 347.77 369.254 347.77 L 409.814 347.77 C 445.298 347.77 474.064 319.005 474.064 283.52 L 474.064 229.09 C 474.069 193.604 445.3 164.835 409.814 164.84 L 369.264 164.84 C 357.257 164.835 347.519 174.564 347.514 186.57 L 347.514 254.21 C 347.518 260.784 352.781 266.145 359.354 266.27 L 359.594 266.27 C 366.346 266.422 371.893 260.974 371.864 254.22 L 371.864 189.22 L 409.814 189.22 C 431.855 189.22 449.724 207.089 449.724 229.13 L 449.724 283.52 C 449.718 305.558 431.851 323.42 409.814 323.42 L 371.874 323.42 L 371.874 321.94 C 371.868 315.288 366.476 309.896 359.824 309.89 Z" style="fill: rgb(255, 255, 255);"/>
      <path class="cls-7" d="M 245.034 283.19 C 254.671 283.19 260.695 272.757 255.876 264.41 C 251.057 256.064 239.01 256.064 234.191 264.41 C 233.092 266.314 232.514 268.473 232.514 270.67 C 232.514 277.585 238.119 283.19 245.034 283.19 Z" style="fill: rgb(255, 255, 255);"/>
      <path class="cls-8" d="M 331.514 154.72 C 341.151 154.72 347.175 144.287 342.356 135.94 C 337.537 127.594 325.49 127.594 320.671 135.94 C 319.572 137.844 318.994 140.003 318.994 142.2 C 318.999 149.113 324.601 154.715 331.514 154.72 Z" style="fill: rgb(255, 255, 255);"/>
      <path class="cls-9" d="M 487.064 157.68 C 496.701 157.657 502.7 147.209 497.861 138.874 C 493.022 130.539 480.975 130.568 476.176 138.926 C 475.087 140.823 474.514 142.973 474.514 145.16 C 474.519 152.084 480.14 157.691 487.064 157.68 Z" style="fill: rgb(255, 255, 255);"/>
      <path class="cls-10" d="M 359.724 299.29 C 369.361 299.29 375.385 288.857 370.566 280.51 C 365.747 272.164 353.7 272.164 348.881 280.51 C 347.782 282.414 347.204 284.573 347.204 286.77 C 347.209 293.683 352.811 299.285 359.724 299.29 Z" style="fill: rgb(255, 255, 255);"/>
      <path class="cls-11" d="M 296.664 405.22 C 287.026 405.22 281.002 415.654 285.821 424 C 290.64 432.347 302.687 432.347 307.506 424 C 308.605 422.097 309.184 419.938 309.184 417.74 C 309.184 410.826 303.578 405.22 296.664 405.22 Z" style="fill: rgb(255, 255, 255);"/>
      <path class="cls-12" d="M 568.004 270.15 C 558.366 270.143 552.334 280.571 557.146 288.922 C 561.958 297.272 574.006 297.282 578.831 288.939 C 579.933 287.034 580.514 284.871 580.514 282.67 C 580.508 275.762 574.912 270.161 568.004 270.15 Z" style="fill: rgb(255, 255, 255);"/>
    </g>
  </g>
</svg>