<?xml version="1.0" encoding="utf-8"?>
<svg viewBox="0 0 500 500" xmlns="http://www.w3.org/2000/svg">
  <defs>
    <symbol id="w" overflow="visible">
      <path d="m26.047-1.5625c-1.3359 0.69922-2.7305 1.2266-4.1875 1.5781-1.4609 0.35156-2.9805 0.53125-4.5625 0.53125-4.7188 0-8.4609-1.3164-11.219-3.9531-2.7617-2.6445-4.1406-6.2227-4.1406-10.734 0-4.5391 1.3789-8.1289 4.1406-10.766 2.7578-2.6328 6.5-3.9531 11.219-3.9531 1.582 0 3.1016 0.17969 4.5625 0.53125 1.457 0.35547 2.8516 0.88281 4.1875 1.5781v5.8594c-1.3555-0.92578-2.6875-1.6016-4-2.0312-1.3125-0.42578-2.6992-0.64062-4.1562-0.64062-2.6172 0-4.668 0.83984-6.1562 2.5156-1.4922 1.668-2.2344 3.9688-2.2344 6.9062 0 2.918 0.74219 5.2148 2.2344 6.8906 1.4883 1.668 3.5391 2.5 6.1562 2.5 1.457 0 2.8438-0.21094 4.1562-0.64062 1.3125-0.42578 2.6445-1.1016 4-2.0312z"/>
    </symbol>
    <symbol id="d" overflow="visible">
      <path d="m19.062-15.469c-0.59375-0.28125-1.1875-0.48828-1.7812-0.625-0.58594-0.13281-1.1719-0.20312-1.7656-0.20312-1.75 0-3.1016 0.5625-4.0469 1.6875-0.9375 1.1172-1.4062 2.7188-1.4062 4.8125v9.7969h-6.7969v-21.266h6.7969v3.4844c0.875-1.3828 1.8789-2.3945 3.0156-3.0312 1.1328-0.64453 2.4883-0.96875 4.0625-0.96875 0.22656 0 0.47266 0.011719 0.73438 0.03125 0.26953 0.023438 0.66016 0.0625 1.1719 0.125z"/>
    </symbol>
    <symbol id="a" overflow="visible">
      <path d="m24.5-10.688v1.9375h-15.891c0.15625 1.5938 0.72656 2.793 1.7188 3.5938 0.98828 0.79297 2.3672 1.1875 4.1406 1.1875 1.4258 0 2.8906-0.20703 4.3906-0.625 1.5-0.42578 3.0391-1.0703 4.625-1.9375v5.2344c-1.6055 0.61719-3.2148 1.0742-4.8281 1.375-1.6055 0.3125-3.2109 0.46875-4.8125 0.46875-3.8438 0-6.8359-0.97266-8.9688-2.9219-2.1367-1.957-3.2031-4.7031-3.2031-8.2344 0-3.4688 1.0469-6.1953 3.1406-8.1875 2.0938-1.9883 4.9766-2.9844 8.6562-2.9844 3.3438 0 6.0156 1.0078 8.0156 3.0156 2.0078 2.0117 3.0156 4.7031 3.0156 8.0781zm-6.9844-2.2656c0-1.2891-0.38281-2.332-1.1406-3.125-0.75-0.78906-1.7344-1.1875-2.9531-1.1875-1.3125 0-2.3828 0.37109-3.2031 1.1094-0.82422 0.74219-1.3398 1.8086-1.5469 3.2031z"/>
    </symbol>
    <symbol id="c" overflow="visible">
      <path d="m12.797-9.5781c-1.418 0-2.4844 0.24609-3.2031 0.73438-0.71094 0.48047-1.0625 1.1875-1.0625 2.125 0 0.85547 0.28516 1.5273 0.85938 2.0156 0.57031 0.49219 1.375 0.73438 2.4062 0.73438 1.2695 0 2.3438-0.45703 3.2188-1.375 0.875-0.91406 1.3125-2.0664 1.3125-3.4531v-0.78125zm10.391-2.5625v12.141h-6.8594v-3.1562c-0.90625 1.293-1.9336 2.2344-3.0781 2.8281-1.1367 0.58203-2.5234 0.875-4.1562 0.875-2.1992 0-3.9844-0.64062-5.3594-1.9219s-2.0625-2.9453-2.0625-5c0-2.5 0.85156-4.3281 2.5625-5.4844 1.7188-1.1641 4.4141-1.75 8.0938-1.75h4v-0.53125c0-1.082-0.42969-1.875-1.2812-2.375-0.84375-0.5-2.1641-0.75-3.9531-0.75-1.4609 0-2.8203 0.14844-4.0781 0.4375-1.25 0.29297-2.4141 0.73047-3.4844 1.3125v-5.1875c1.457-0.35156 2.9219-0.61719 4.3906-0.79688 1.4688-0.1875 2.9375-0.28125 4.4062-0.28125 3.832 0 6.5977 0.75781 8.2969 2.2656 1.707 1.5117 2.5625 3.9688 2.5625 7.375z"/>
    </symbol>
    <symbol id="b" overflow="visible">
      <path d="m10.688-27.312v6.0469h7.0156v4.8594h-7.0156v9.0156c0 0.99219 0.19531 1.6641 0.59375 2.0156 0.39453 0.34375 1.1719 0.51562 2.3281 0.51562h3.5v4.8594h-5.8281c-2.6875 0-4.5938-0.55469-5.7188-1.6719-1.1172-1.125-1.6719-3.0312-1.6719-5.7188v-9.0156h-3.375v-4.8594h3.375v-6.0469z"/>
    </symbol>
    <symbol id="k" overflow="visible">
      <path d="m17.734-18.156v-11.391h6.8438v29.547h-6.8438v-3.0781c-0.9375 1.25-1.9688 2.168-3.0938 2.75s-2.4297 0.875-3.9062 0.875c-2.625 0-4.7812-1.0391-6.4688-3.125-1.6797-2.082-2.5156-4.7578-2.5156-8.0312 0-3.2812 0.83594-5.9609 2.5156-8.0469 1.6875-2.082 3.8438-3.125 6.4688-3.125 1.4688 0 2.7656 0.29688 3.8906 0.89062 1.1328 0.58594 2.1719 1.4961 3.1094 2.7344zm-4.4844 13.766c1.457 0 2.5664-0.53125 3.3281-1.5938 0.76953-1.0625 1.1562-2.6016 1.1562-4.625 0-2.0312-0.38672-3.5781-1.1562-4.6406-0.76172-1.0625-1.8711-1.5938-3.3281-1.5938-1.4375 0-2.543 0.53125-3.3125 1.5938-0.76172 1.0625-1.1406 2.6094-1.1406 4.6406 0 2.0234 0.37891 3.5625 1.1406 4.625 0.76953 1.0625 1.875 1.5938 3.3125 1.5938z"/>
    </symbol>
    <symbol id="j" overflow="visible">
      <path d="m14.578-4.3906c1.457 0 2.5664-0.53125 3.3281-1.5938 0.76953-1.0625 1.1562-2.6016 1.1562-4.625 0-2.0312-0.38672-3.5781-1.1562-4.6406-0.76172-1.0625-1.8711-1.5938-3.3281-1.5938-1.4492 0-2.5625 0.53906-3.3438 1.6094-0.78125 1.0625-1.1719 2.6055-1.1719 4.625 0 2.0117 0.39062 3.5547 1.1719 4.625 0.78125 1.0625 1.8945 1.5938 3.3438 1.5938zm-4.5156-13.766c0.9375-1.2383 1.9727-2.1484 3.1094-2.7344 1.1445-0.59375 2.457-0.89062 3.9375-0.89062 2.625 0 4.7734 1.043 6.4531 3.125 1.6875 2.0859 2.5312 4.7656 2.5312 8.0469 0 3.2734-0.84375 5.9492-2.5312 8.0312-1.6797 2.0859-3.8281 3.125-6.4531 3.125-1.4805 0-2.793-0.29297-3.9375-0.875-1.1367-0.59375-2.1719-1.5078-3.1094-2.75v3.0781h-6.7969v-29.547h6.7969z"/>
    </symbol>
    <symbol id="i" overflow="visible">
      <path d="m0.46875-21.266h6.7969l5.7188 14.422 4.8594-14.422h6.8125l-8.9531 23.281c-0.89844 2.3633-1.9453 4.0156-3.1406 4.9531-1.1992 0.94531-2.7773 1.4219-4.7344 1.4219h-3.9375v-4.4531h2.125c1.1562 0 1.9922-0.1875 2.5156-0.5625 0.53125-0.36719 0.94141-1.0234 1.2344-1.9688l0.1875-0.59375z"/>
    </symbol>
    <symbol id="h" overflow="visible">
      <path d="m20.781-5.1719h-11.438l-1.8125 5.1719h-7.3438l10.5-28.344h8.7188l10.5 28.344h-7.3438zm-9.6094-5.25h7.7656l-3.875-11.281z"/>
    </symbol>
    <symbol id="v" overflow="visible">
      <path d="m2.2188-21.266h18.562v4.75l-11.203 11.656h11.203v4.8594h-19.031v-4.75l11.203-11.656h-10.734z"/>
    </symbol>
    <symbol id="g" overflow="visible">
      <path d="m22.984-17.734c0.85156-1.3203 1.8672-2.3281 3.0469-3.0156 1.1875-0.6875 2.4922-1.0312 3.9219-1.0312 2.4375 0 4.2969 0.75781 5.5781 2.2656 1.2812 1.5 1.9219 3.6875 1.9219 6.5625v12.953h-6.8438v-11.094c0.007813-0.16406 0.019531-0.33594 0.03125-0.51562 0.007813-0.17578 0.015625-0.42578 0.015625-0.75 0-1.5078-0.22656-2.6016-0.67188-3.2812-0.44922-0.67578-1.1641-1.0156-2.1406-1.0156-1.293 0-2.293 0.53125-3 1.5938-0.69922 1.0625-1.0625 2.6055-1.0938 4.625v10.438h-6.8281v-11.094c0-2.3516-0.20312-3.8672-0.60938-4.5469-0.40625-0.67578-1.1328-1.0156-2.1719-1.0156-1.3047 0-2.3086 0.53906-3.0156 1.6094-0.71094 1.0742-1.0625 2.6016-1.0625 4.5781v10.469h-6.8281v-21.266h6.8281v3.1094c0.83203-1.1953 1.7891-2.0977 2.875-2.7031 1.082-0.61328 2.2734-0.92188 3.5781-0.92188 1.4688 0 2.7656 0.35547 3.8906 1.0625 1.1328 0.71094 1.9922 1.7031 2.5781 2.9844z"/>
    </symbol>
    <symbol id="u" overflow="visible">
      <path d="m3.5625-28.344h7.3125v28.344h-7.3125z"/>
    </symbol>
    <symbol id="t" overflow="visible">
      <path d="m19.875-20.609v5.1719c-1.4492-0.60156-2.8516-1.0547-4.2031-1.3594-1.3555-0.3125-2.6367-0.46875-3.8438-0.46875-1.293 0-2.25 0.16406-2.875 0.48438-0.625 0.32422-0.9375 0.82422-0.9375 1.5 0 0.54297 0.23438 0.96094 0.70312 1.25 0.47656 0.29297 1.332 0.50781 2.5625 0.64062l1.1875 0.17188c3.4883 0.44922 5.832 1.1797 7.0312 2.1875 1.207 1.0117 1.8125 2.6016 1.8125 4.7656 0 2.2617-0.83984 3.9648-2.5156 5.1094-1.668 1.1367-4.1641 1.7031-7.4844 1.7031-1.4062 0-2.8594-0.10938-4.3594-0.32812s-3.043-0.55078-4.625-1v-5.1562c1.3633 0.65625 2.7539 1.1523 4.1719 1.4844 1.4258 0.32422 2.875 0.48438 4.3438 0.48438 1.332 0 2.332-0.17969 3-0.54688 0.66406-0.36328 1-0.91016 1-1.6406 0-0.60156-0.23047-1.0508-0.6875-1.3438-0.46094-0.30078-1.3828-0.53516-2.7656-0.70312l-1.1875-0.15625c-3.0312-0.375-5.1562-1.0703-6.375-2.0938-1.2109-1.0312-1.8125-2.5938-1.8125-4.6875 0-2.25 0.76953-3.9141 2.3125-5 1.5391-1.0938 3.9102-1.6406 7.1094-1.6406 1.25 0 2.5625 0.09375 3.9375 0.28125 1.3828 0.1875 2.8828 0.48438 4.5 0.89062z"/>
    </symbol>
    <symbol id="f" overflow="visible">
      <path d="m24.656-12.953v12.953h-6.8438v-9.875c0-1.8633-0.042969-3.1406-0.125-3.8281-0.085938-0.69531-0.22656-1.2109-0.42188-1.5469-0.27344-0.4375-0.63672-0.78125-1.0938-1.0312-0.44922-0.25-0.96484-0.375-1.5469-0.375-1.418 0-2.5312 0.54688-3.3438 1.6406s-1.2188 2.6094-1.2188 4.5469v10.469h-6.7969v-29.547h6.7969v11.391c1.0312-1.2383 2.1172-2.1484 3.2656-2.7344 1.1562-0.59375 2.4258-0.89062 3.8125-0.89062 2.457 0 4.3203 0.75781 5.5938 2.2656 1.2812 1.5 1.9219 3.6875 1.9219 6.5625z"/>
    </symbol>
    <symbol id="s" overflow="visible">
      <path d="m13.25-16.844c-1.4375 0-2.543 0.53125-3.3125 1.5938-0.76172 1.0625-1.1406 2.6094-1.1406 4.6406 0 2.0234 0.37891 3.5625 1.1406 4.625 0.76953 1.0625 1.875 1.5938 3.3125 1.5938 1.457 0 2.5664-0.53125 3.3281-1.5938 0.76953-1.0625 1.1562-2.6016 1.1562-4.625 0-2.0312-0.38672-3.5781-1.1562-4.6406-0.76172-1.0625-1.8711-1.5938-3.3281-1.5938zm4.4844 13.766c-0.9375 1.25-1.9688 2.168-3.0938 2.75s-2.4297 0.875-3.9062 0.875c-2.625 0-4.7812-1.0391-6.4688-3.125-1.6797-2.082-2.5156-4.7578-2.5156-8.0312 0-3.2812 0.83594-5.957 2.5156-8.0312 1.6875-2.0703 3.8438-3.1094 6.4688-3.1094 1.4766 0 2.7812 0.29297 3.9062 0.875 1.125 0.58594 2.1562 1.5078 3.0938 2.7656v-3.1562h6.8438v29.359h-6.8438z"/>
    </symbol>
    <symbol id="r" overflow="visible">
      <path d="m17.266-29.547v4.4688h-3.7656c-0.96094 0-1.6328 0.17188-2.0156 0.51562-0.375 0.34375-0.5625 0.94922-0.5625 1.8125v1.4844h5.8125v4.8594h-5.8125v16.406h-6.7969v-16.406h-3.3906v-4.8594h3.3906v-1.4844c0-2.3125 0.64453-4.0195 1.9375-5.125 1.2891-1.1133 3.2891-1.6719 6-1.6719z"/>
    </symbol>
    <symbol id="e" overflow="visible">
      <path d="m13.391-16.922c-1.5117 0-2.6641 0.54297-3.4531 1.625-0.79297 1.0859-1.1875 2.6484-1.1875 4.6875 0 2.0312 0.39453 3.5898 1.1875 4.6719 0.78906 1.0859 1.9414 1.625 3.4531 1.625 1.4766 0 2.6094-0.53906 3.3906-1.625 0.78906-1.082 1.1875-2.6406 1.1875-4.6719 0-2.0391-0.39844-3.6016-1.1875-4.6875-0.78125-1.082-1.9141-1.625-3.3906-1.625zm0-4.8594c3.6562 0 6.5078 0.99219 8.5625 2.9688 2.0625 1.9688 3.0938 4.7031 3.0938 8.2031 0 3.4922-1.0312 6.2266-3.0938 8.2031-2.0547 1.9688-4.9062 2.9531-8.5625 2.9531-3.6797 0-6.5547-0.98438-8.625-2.9531-2.0625-1.9766-3.0938-4.7109-3.0938-8.2031 0-3.5 1.0312-6.2344 3.0938-8.2031 2.0703-1.9766 4.9453-2.9688 8.625-2.9688z"/>
    </symbol>
    <symbol id="q" overflow="visible">
      <path d="m3.5625-28.344h8.1719l10.312 19.438v-19.438h6.9375v28.344h-8.1719l-10.312-19.453v19.453h-6.9375z"/>
    </symbol>
    <symbol id="p" overflow="visible">
      <path d="m3.0312-8.2812v-12.984h6.8438v2.125c0 1.1562-0.007812 2.6055-0.015625 4.3438-0.011719 1.7422-0.015625 2.9023-0.015625 3.4844 0 1.7109 0.039062 2.9375 0.125 3.6875 0.09375 0.75 0.24219 1.2969 0.45312 1.6406 0.28125 0.44922 0.64453 0.79297 1.0938 1.0312 0.44531 0.24219 0.96094 0.35938 1.5469 0.35938 1.4141 0 2.5312-0.53906 3.3438-1.625 0.8125-1.0938 1.2188-2.6094 1.2188-4.5469v-10.5h6.7969v21.266h-6.7969v-3.0781c-1.0312 1.2422-2.1211 2.1562-3.2656 2.75-1.1484 0.58203-2.4062 0.875-3.7812 0.875-2.4609 0-4.3359-0.75-5.625-2.25-1.2812-1.5078-1.9219-3.7031-1.9219-6.5781z"/>
    </symbol>
    <symbol id="o" overflow="visible">
      <path d="m24.656-12.953v12.953h-6.8438v-9.9062c0-1.8438-0.042969-3.1094-0.125-3.7969-0.085938-0.69531-0.22656-1.2109-0.42188-1.5469-0.27344-0.4375-0.63672-0.78125-1.0938-1.0312-0.44922-0.25-0.96484-0.375-1.5469-0.375-1.418 0-2.5312 0.54688-3.3438 1.6406s-1.2188 2.6094-1.2188 4.5469v10.469h-6.7969v-21.266h6.7969v3.1094c1.0312-1.2383 2.1172-2.1484 3.2656-2.7344 1.1562-0.59375 2.4258-0.89062 3.8125-0.89062 2.457 0 4.3203 0.75781 5.5938 2.2656 1.2812 1.5 1.9219 3.6875 1.9219 6.5625z"/>
    </symbol>
    <symbol id="n" overflow="visible">
      <path d="m3.5625-28.344h12.141c3.6016 0 6.3672 0.80469 8.2969 2.4062 1.9375 1.5938 2.9062 3.8711 2.9062 6.8281 0 2.9805-0.96875 5.2734-2.9062 6.875-1.9297 1.5938-4.6953 2.3906-8.2969 2.3906h-4.8281v9.8438h-7.3125zm7.3125 5.2969v7.9062h4.0469c1.4141 0 2.5078-0.34375 3.2812-1.0312 0.78125-0.6875 1.1719-1.6641 1.1719-2.9375 0-1.2578-0.39062-2.2266-1.1719-2.9062-0.77344-0.6875-1.8672-1.0312-3.2812-1.0312z"/>
    </symbol>
    <symbol id="m" overflow="visible">
      <path d="m3.2656-21.266h6.7969v20.891c0 2.8438-0.68359 5.0156-2.0469 6.5156-1.3672 1.5-3.3516 2.25-5.9531 2.25h-3.3594v-4.4531h1.1875c1.2891 0 2.1758-0.29297 2.6562-0.875 0.47656-0.58594 0.71875-1.7305 0.71875-3.4375zm0-8.2812h6.7969v5.5469h-6.7969z"/>
    </symbol>
    <symbol id="l" overflow="visible">
      <path d="m20.453-20.609v5.5469c-0.92969-0.63281-1.8555-1.1016-2.7812-1.4062-0.92969-0.30078-1.8906-0.45312-2.8906-0.45312-1.9062 0-3.3906 0.55859-4.4531 1.6719-1.0547 1.1055-1.5781 2.6523-1.5781 4.6406 0 1.9805 0.52344 3.5273 1.5781 4.6406 1.0625 1.1055 2.5469 1.6562 4.4531 1.6562 1.0625 0 2.0664-0.15625 3.0156-0.46875 0.95703-0.32031 1.8438-0.78906 2.6562-1.4062v5.5625c-1.0625 0.39844-2.1406 0.6875-3.2344 0.875-1.0938 0.19531-2.1953 0.29688-3.2969 0.29688-3.8359 0-6.8359-0.98438-9-2.9531-2.168-1.9688-3.25-4.7031-3.25-8.2031 0-3.5078 1.082-6.25 3.25-8.2188 2.1641-1.9688 5.1641-2.9531 9-2.9531 1.1133 0 2.2109 0.10156 3.2969 0.29688 1.082 0.19922 2.1602 0.49219 3.2344 0.875z"/>
    </symbol>
  </defs>
  <g transform="matrix(1, 0, 0, 1, -92.678268, -189.880125)">
    <path d="M 325.581 515.982 C 318.347 514.97 311.038 516.837 305.202 521.271 C 299.292 525.705 295.558 532.162 294.468 539.47 C 293.378 546.782 295.324 554.013 299.757 559.849 C 305.202 567.005 313.445 570.814 321.769 570.814 C 327.523 570.814 333.359 569.025 338.335 565.291 C 350.468 556.111 352.878 538.846 343.702 526.713 C 339.351 520.806 332.893 516.994 325.581 515.983 L 325.581 515.982 Z M 331.339 555.962 C 327.995 558.528 323.796 559.618 319.593 558.997 C 315.394 558.376 311.659 556.196 309.093 552.853 C 306.526 549.431 305.437 545.31 306.058 541.107 C 306.679 536.907 308.858 533.173 312.202 530.607 C 315.003 528.505 318.347 527.419 321.769 527.419 C 322.468 527.419 323.245 527.497 324.022 527.575 C 328.222 528.196 331.956 530.376 334.522 533.72 C 339.737 540.638 338.339 550.673 331.339 555.962 L 331.339 555.962 Z" style="fill: rgb(255, 255, 255);"/>
    <path d="M 589.171 583.112 L 517.46 521.979 L 501.827 442.022 C 501.671 441.166 501.284 440.311 500.737 439.612 L 410.284 319.752 C 405.23 312.986 395.663 311.353 388.585 315.939 L 386.718 317.107 L 376.609 303.65 L 385.789 297.662 C 387.109 296.806 388.043 295.408 388.355 293.771 C 388.668 292.217 388.277 290.584 387.265 289.26 L 367.12 262.194 C 363.386 257.295 358.019 254.104 351.874 253.248 C 345.808 252.393 339.741 253.948 334.839 257.682 C 324.73 265.303 322.706 279.85 330.328 289.881 L 348.996 314.924 C 350.164 316.479 351.875 317.256 353.664 317.256 C 354.753 317.256 355.843 316.943 356.851 316.322 L 366.73 309.943 L 376.918 323.4 L 339.039 348.056 L 328.93 334.599 L 338.11 328.611 C 339.43 327.756 340.364 326.357 340.676 324.72 C 340.989 323.088 340.598 321.533 339.586 320.209 L 315.941 288.475 C 312.207 283.576 306.84 280.385 300.773 279.529 C 294.707 278.674 288.64 280.229 283.738 283.963 C 273.629 291.584 271.605 306.053 279.227 316.162 L 301.395 345.951 C 302.563 347.506 304.274 348.283 306.063 348.283 C 307.152 348.283 308.242 347.971 309.25 347.35 L 319.129 340.971 L 329.317 354.428 L 291.438 379.084 L 281.329 365.627 L 290.509 359.638 C 291.829 358.783 292.763 357.384 293.075 355.748 C 293.388 354.115 292.997 352.482 291.985 351.236 L 269.118 320.904 C 265.384 316.006 260.017 312.814 253.95 311.959 C 247.884 311.103 241.817 312.658 236.915 316.392 C 226.806 324.013 224.782 338.56 232.404 348.669 L 253.795 377.06 C 254.963 378.537 256.674 379.392 258.463 379.392 C 259.552 379.392 260.642 379.08 261.65 378.459 L 271.529 372.08 L 281.717 385.537 L 243.838 410.193 L 233.65 396.736 L 242.83 390.748 C 244.15 389.892 245.084 388.494 245.396 386.857 C 245.709 385.224 245.318 383.591 244.306 382.345 L 223.849 355.2 C 220.115 350.302 214.748 347.11 208.681 346.255 C 204.56 345.712 200.513 346.333 196.783 347.81 L 189.24 337.853 L 198.264 331.009 C 200.83 329.064 201.373 325.407 199.432 322.841 L 180.299 297.486 C 173.998 289.166 163.033 286.521 153.467 290.408 L 147.557 282.552 L 156.58 275.708 C 157.826 274.775 158.603 273.376 158.834 271.818 C 159.068 270.263 158.678 268.708 157.744 267.462 L 138.529 242.282 C 134.873 237.462 129.584 234.271 123.595 233.493 C 117.607 232.638 111.618 234.196 106.251 238.239 C 96.294 245.782 94.274 260.016 101.817 269.973 L 120.95 295.328 C 122.118 296.883 123.829 297.66 125.618 297.66 C 126.865 297.66 128.107 297.27 129.118 296.492 L 138.142 289.649 L 143.974 297.426 C 137.595 305.359 137.13 316.793 143.509 325.27 L 162.642 350.625 C 163.576 351.871 164.974 352.648 166.533 352.879 C 166.767 352.879 167.076 352.957 167.31 352.957 C 168.556 352.957 169.798 352.566 170.81 351.789 L 179.833 344.945 L 187.376 354.902 C 181.076 362.914 180.611 374.425 187.064 382.98 L 206.119 408.179 C 207.287 409.656 208.998 410.511 210.787 410.511 C 211.877 410.511 212.967 410.199 213.974 409.577 L 223.853 403.199 L 234.041 416.656 L 232.174 417.824 C 228.44 420.234 225.873 424.202 225.096 428.558 C 224.319 432.913 225.408 437.503 228.131 441.081 L 277.596 506.647 L 239.096 500.58 C 232.331 499.182 225.33 500.502 219.494 504.315 C 213.971 507.971 210.162 513.416 208.603 519.792 L 192.97 516.526 L 196.861 497.706 C 197.173 496.229 196.861 494.597 196.005 493.35 C 195.15 492.03 193.826 491.171 192.349 490.862 L 170.415 486.272 C 155.794 483.237 140.86 486.038 128.337 494.206 C 115.814 502.374 107.259 514.972 104.228 529.597 C 103.607 532.784 105.627 535.82 108.74 536.519 L 179.674 551.296 C 180.064 551.374 180.451 551.452 180.842 551.452 C 183.565 551.452 185.975 549.585 186.522 546.784 L 190.412 527.964 L 206.045 531.23 C 204.955 537.687 206.279 544.296 209.858 549.82 C 213.67 555.652 219.502 559.62 226.581 561.097 L 269.749 567.862 C 271.381 571.362 273.405 574.784 275.815 577.897 C 287.092 592.831 304.28 600.686 321.706 600.686 C 333.761 600.686 345.894 596.952 356.241 589.096 C 357.561 588.163 358.729 587.073 359.897 586.061 L 400.577 609.862 L 438.999 696.35 C 439.698 697.983 441.179 699.151 442.89 699.616 C 443.355 699.772 443.902 699.772 444.366 699.772 C 445.613 699.772 446.855 699.381 447.866 698.604 L 588.796 592.204 C 590.195 591.114 591.05 589.481 591.128 587.692 C 591.273 585.903 590.57 584.192 589.171 583.102 L 589.171 583.112 Z M 355.141 303.732 L 339.743 282.966 C 335.931 277.989 336.942 270.833 341.997 267.021 C 343.942 265.544 346.352 264.767 348.763 264.767 C 349.306 264.767 349.852 264.767 350.395 264.845 C 353.352 265.236 356.075 266.869 357.86 269.279 L 374.27 291.291 L 355.141 303.732 Z M 307.539 334.689 L 288.562 309.255 C 284.75 304.278 285.761 297.122 290.742 293.388 C 292.765 291.911 295.097 291.056 297.586 291.056 C 298.129 291.056 298.597 291.056 299.14 291.134 C 302.097 291.525 304.82 293.157 306.605 295.568 L 326.515 322.248 L 307.539 334.689 Z M 259.785 365.798 L 241.664 341.763 C 237.852 336.786 238.863 329.63 243.918 325.818 C 245.863 324.341 248.273 323.564 250.684 323.564 C 251.227 323.564 251.773 323.564 252.316 323.642 C 255.352 324.033 257.996 325.666 259.781 328.076 L 278.914 353.431 L 259.785 365.798 Z M 126.785 283.665 L 111.148 262.977 C 107.496 258.153 108.429 251.231 113.793 247.11 C 115.738 245.633 117.992 244.856 120.402 244.856 C 120.945 244.856 121.414 244.856 121.957 244.934 C 124.914 245.325 127.48 246.879 129.191 249.211 L 144.824 269.899 L 135.805 276.821 L 126.785 283.665 Z M 168.473 338.966 L 152.84 318.278 C 149.184 313.458 150.117 306.532 155.563 302.489 C 157.508 301.012 159.84 300.235 162.172 300.235 C 165.516 300.235 168.782 301.712 170.961 304.59 L 186.594 325.278 L 168.473 338.966 Z M 212.106 396.755 L 196.395 375.911 C 192.583 370.934 193.594 363.778 198.575 360.044 C 200.598 358.567 202.93 357.79 205.34 357.79 C 205.883 357.79 206.43 357.79 206.973 357.868 C 210.008 358.259 212.653 359.892 214.438 362.302 L 231.161 384.47 L 212.106 396.755 Z M 176.407 538.625 L 117.219 526.258 C 120.407 517.156 126.473 509.301 134.715 503.934 C 144.594 497.477 156.414 495.223 168.004 497.633 L 184.258 501.055 L 176.407 538.625 Z M 420.237 562.969 C 421.635 552.781 427.003 543.758 435.171 537.535 C 441.937 532.402 449.948 529.758 458.273 529.758 C 460.062 529.758 461.851 529.914 463.718 530.148 C 473.906 531.547 482.929 536.914 489.152 545.082 C 495.375 553.328 497.941 563.437 496.543 573.625 C 495.145 583.813 489.777 592.836 481.609 599.059 C 473.363 605.282 463.254 607.848 453.066 606.45 C 442.878 605.051 433.855 599.684 427.632 591.516 C 421.405 583.27 418.761 573.157 420.237 562.969 L 420.237 562.969 Z M 236.527 430.509 C 236.761 429.263 237.461 428.177 238.472 427.552 L 291.984 392.708 C 292.605 392.474 293.152 392.243 293.695 391.852 C 293.852 391.696 294.008 391.54 294.16 391.309 L 341.215 360.664 L 341.293 360.664 L 387.727 330.484 C 388.192 330.328 388.661 330.094 389.048 329.785 C 389.204 329.707 389.282 329.551 389.36 329.395 L 394.962 325.738 C 396.907 324.492 399.551 324.883 401.028 326.828 L 490.708 445.598 L 505.798 522.598 L 493.196 532.165 C 485.653 524.852 476.008 520.11 465.352 518.63 C 453.997 516.997 442.797 519.329 433.075 525.009 L 380.263 455.009 L 387.419 403.677 C 391.54 403.286 395.587 401.887 399.165 399.165 C 404.064 395.43 407.255 390.063 408.111 383.919 C 408.966 377.774 407.411 371.708 403.677 366.81 C 399.943 361.911 394.575 358.72 388.431 357.865 C 382.286 357.009 376.22 358.564 371.322 362.298 C 361.134 369.997 359.111 384.544 366.81 394.732 C 369.299 397.998 372.49 400.334 375.912 401.888 L 369.146 450.033 L 318.435 442.877 C 317.736 439.533 316.334 436.342 314.236 433.545 C 306.381 423.123 291.525 421.022 281.025 428.877 C 270.603 436.733 268.502 451.666 276.357 462.088 C 281.025 468.233 288.103 471.498 295.334 471.498 C 300.311 471.498 305.291 469.944 309.568 466.752 C 313.689 463.643 316.49 459.362 317.888 454.541 L 370.779 462.006 L 423.591 532.006 C 415.423 539.783 410.134 549.971 408.501 561.326 C 407.025 571.982 408.966 582.56 413.947 591.814 L 404.919 598.748 L 368.052 577.205 C 382.673 557.295 383.22 529.373 367.588 508.682 C 358.334 496.471 344.877 488.537 329.709 486.436 C 314.541 484.334 299.377 488.225 287.166 497.479 C 286.701 497.791 286.31 498.178 285.919 498.49 L 237.31 434.013 C 236.607 433.002 236.295 431.759 236.529 430.513 L 236.527 430.509 Z M 376.067 387.654 C 372.255 382.599 373.266 375.443 378.321 371.631 C 380.344 370.154 382.755 369.299 385.165 369.299 C 385.708 369.299 386.255 369.299 386.798 369.377 C 389.833 369.768 392.477 371.4 394.341 373.811 C 396.208 376.221 396.985 379.256 396.52 382.287 C 396.055 385.322 394.497 387.967 392.087 389.83 C 387.032 393.721 379.876 392.709 376.067 387.654 L 376.067 387.654 Z M 302.567 457.498 C 297.278 461.463 289.735 460.455 285.688 455.166 C 281.723 449.877 282.731 442.334 288.02 438.287 C 290.2 436.654 292.766 435.877 295.254 435.877 C 298.911 435.877 302.489 437.509 304.899 440.623 C 308.942 445.912 307.856 453.455 302.567 457.498 L 302.567 457.498 Z M 228.833 549.51 C 225.099 548.733 221.833 546.553 219.731 543.365 C 217.63 540.178 216.931 536.287 217.63 532.553 L 219.653 523.065 C 220.431 519.331 222.61 516.065 225.798 513.963 C 228.985 511.862 232.876 511.163 236.919 511.94 L 270.599 517.229 C 267.798 522.831 265.778 528.819 264.919 535.194 C 263.985 541.96 264.298 548.729 265.696 555.182 L 228.833 549.51 Z M 349.383 579.768 C 329.238 594.936 300.539 590.967 285.293 570.823 C 277.902 561.1 274.793 549.046 276.504 536.913 C 278.215 524.78 284.516 514.124 294.238 506.733 C 302.25 500.666 311.816 497.479 321.695 497.479 C 323.797 497.479 325.972 497.635 328.152 497.944 C 340.285 499.654 350.941 505.955 358.332 515.678 C 373.496 535.823 369.527 564.6 349.383 579.768 L 349.383 579.768 Z M 446.84 684.838 L 412.539 607.526 L 420.707 601.381 C 428.641 610.405 439.375 616.236 451.43 617.947 C 453.762 618.26 456.176 618.412 458.508 618.412 C 469.32 618.412 479.82 614.912 488.61 608.303 C 499.344 600.213 506.188 588.471 508.055 575.17 C 509.766 563.115 507.043 551.213 500.512 541.104 L 511.946 532.471 L 576.114 587.151 L 446.84 684.838 Z" style="fill: rgb(255, 255, 255);"/>
    <path d="M 455.631 587.772 C 456.565 587.928 457.498 587.928 458.432 587.928 C 462.709 587.928 466.83 586.53 470.252 583.963 C 478.885 577.428 480.674 565.065 474.142 556.354 C 470.955 552.155 466.365 549.432 461.154 548.733 C 455.944 548.034 450.732 549.354 446.533 552.546 C 442.334 555.733 439.612 560.323 438.912 565.534 C 438.213 570.745 439.533 575.956 442.725 580.155 C 445.83 584.35 450.42 587.073 455.631 587.772 L 455.631 587.772 Z M 453.529 561.874 C 454.928 560.784 456.639 560.241 458.35 560.241 C 458.74 560.241 459.127 560.241 459.518 560.319 C 461.619 560.632 463.483 561.718 464.807 563.429 C 467.451 566.929 466.752 571.983 463.252 574.706 C 461.541 576.026 459.44 576.573 457.342 576.26 C 455.24 575.948 453.299 574.862 452.053 573.151 C 450.733 571.44 450.186 569.338 450.498 567.241 C 450.807 565.139 451.818 563.12 453.529 561.874 L 453.529 561.874 Z" style="fill: rgb(255, 255, 255);"/>
  </g>
</svg>