<svg width="28" height="28" viewBox="0 0 28 28" fill="none" xmlns="http://www.w3.org/2000/svg">
<path d="M26.821 0.263042C25.8188 0.0921146 24.804 0.00413201 23.787 6.02247e-06C20.3173 -0.00281051 16.92 0.982338 14 2.83802C11.0725 1.0067 7.6757 0.0457338 4.21299 0.0692259C3.19604 0.0733519 2.18121 0.161334 1.17901 0.332262C0.850736 0.3883 0.553454 0.558553 0.340702 0.812361C0.12795 1.06617 0.0137081 1.38685 0.0185509 1.71666V18.3294C0.0155565 18.5329 0.0578754 18.7344 0.142496 18.9198C0.227117 19.1052 0.351961 19.2698 0.508144 19.402C0.664327 19.5342 0.84801 19.6307 1.04613 19.6845C1.24424 19.7384 1.45192 19.7484 1.65438 19.7138C3.65795 19.3704 5.71068 19.4273 7.69166 19.8815C9.67264 20.3356 11.5418 21.1776 13.1891 22.358L13.3569 22.455H13.5106C13.6657 22.5189 13.832 22.5519 14 22.5519C14.168 22.5519 14.3343 22.5189 14.4894 22.455H14.6431L14.8109 22.358C16.4467 21.1513 18.3105 20.2819 20.2919 19.8015C22.2732 19.3212 24.3318 19.2396 26.3456 19.5616C26.5481 19.5962 26.7558 19.5862 26.9539 19.5323C27.152 19.4784 27.3357 19.3819 27.4919 19.2497C27.648 19.1175 27.7729 18.9529 27.8575 18.7675C27.9421 18.5821 27.9844 18.3806 27.9814 18.1772V1.56438C27.9669 1.24895 27.8439 0.947919 27.6328 0.711224C27.4217 0.474529 27.1353 0.316392 26.821 0.263042ZM12.6019 18.6617C10.0151 17.3142 7.13583 16.611 4.21299 16.6128C3.7516 16.6128 3.29021 16.6128 2.81484 16.6128V2.7688C3.2805 2.74223 3.74732 2.74223 4.21299 2.7688C7.19577 2.76554 10.1135 3.63224 12.6019 5.26072V18.6617ZM25.1852 16.6682C24.7098 16.6682 24.2484 16.6682 23.787 16.6682C20.8642 16.6664 17.9849 17.3696 15.3981 18.7171V5.26072C17.8865 3.63224 20.8042 2.76554 23.787 2.7688C24.2527 2.74223 24.7195 2.74223 25.1852 2.7688V16.6682ZM26.821 22.4134C25.8188 22.2425 24.804 22.1545 23.787 22.1504C20.3173 22.1476 16.92 23.1327 14 24.9884C11.08 23.1327 7.68267 22.1476 4.21299 22.1504C3.19604 22.1545 2.18121 22.2425 1.17901 22.4134C0.997011 22.442 0.822516 22.506 0.66556 22.6016C0.508604 22.6972 0.372283 22.8226 0.264438 22.9705C0.156593 23.1185 0.0793498 23.2861 0.0371515 23.4637C-0.00504684 23.6413 -0.0113682 23.8254 0.0185509 24.0055C0.0896028 24.365 0.301662 24.682 0.608275 24.8869C0.914888 25.0919 1.29106 25.1682 1.65438 25.0992C3.65795 24.7557 5.71068 24.8127 7.69166 25.2668C9.67264 25.7209 11.5418 26.563 13.1891 27.7434C13.4259 27.9103 13.7093 28 14 28C14.2907 28 14.5741 27.9103 14.8109 27.7434C16.4582 26.563 18.3274 25.7209 20.3083 25.2668C22.2893 24.8127 24.342 24.7557 26.3456 25.0992C26.7089 25.1682 27.0851 25.0919 27.3917 24.8869C27.6983 24.682 27.9104 24.365 27.9814 24.0055C28.0114 23.8254 28.005 23.6413 27.9628 23.4637C27.9206 23.2861 27.8434 23.1185 27.7356 22.9705C27.6277 22.8226 27.4914 22.6972 27.3344 22.6016C27.1775 22.506 27.003 22.442 26.821 22.4134Z" fill="white"/>
</svg>
