<svg width="44" height="44" viewBox="0 0 44 44" fill="none" xmlns="http://www.w3.org/2000/svg">
<circle cx="22" cy="22" r="22" fill="url(#paint0_linear_102_47)"/>
<path d="M20.61 22.66C20.47 22.66 20.36 22.64 20.28 22.6C20.1 22.52 20.01 22.48 20.01 22.48C20.01 22.46 20.1 22.39 20.28 22.27C20.42 22.19 20.58 22.16 20.76 22.18C20.96 22.2 21.1 22.2 21.18 22.18C21.66 22.08 22.24 21.94 22.92 21.76C23.6 21.58 24.39 21.22 25.29 20.68L26.46 19.99C26.56 19.93 26.63 19.94 26.67 20.02C26.63 20.04 26.61 20.09 26.61 20.17C26.75 20.17 26.83 20.12 26.85 20.02C26.89 19.9 26.93 19.79 26.97 19.69H27L27.66 19.27C27.76 19.25 27.85 19.26 27.93 19.3C28.03 19.34 28.12 19.33 28.2 19.27C28.16 19.19 28.12 19.14 28.08 19.12C28.04 19.08 28.06 19.03 28.14 18.97L28.26 18.88C28.42 18.78 28.56 18.71 28.68 18.67C28.82 18.61 28.92 18.5 28.98 18.34C29.38 17.98 29.72 17.62 30 17.26C30.28 16.9 30.42 16.56 30.42 16.24C30.42 15.9 30.23 15.61 29.85 15.37C29.49 15.11 28.84 14.92 27.9 14.8L27.66 14.77C27.52 14.75 27.39 14.73 27.27 14.71C27.15 14.69 27.03 14.65 26.91 14.59C26.93 14.67 26.89 14.71 26.79 14.71C26.51 14.69 26.23 14.68 25.95 14.68C25.67 14.66 25.4 14.65 25.14 14.65C24.7 14.65 24.29 14.66 23.91 14.68C23.55 14.7 23.29 14.72 23.13 14.74L22.14 14.86C22.02 14.82 21.9 14.84 21.78 14.92H21.75C21.61 14.92 21.47 14.94 21.33 14.98C21.19 15 21.04 15.03 20.88 15.07C20.8 15.09 20.71 15.11 20.61 15.13C20.51 15.13 20.41 15.15 20.31 15.19L19.71 15.31C19.57 15.41 19.39 15.46 19.17 15.46H19.14L18.57 15.61H18.54C18.46 15.61 18.39 15.57 18.33 15.49C18.27 15.39 18.23 15.3 18.21 15.22C18.19 15.34 18.16 15.47 18.12 15.61C18.08 15.75 18.01 15.82 17.91 15.82L17.07 16.09C16.99 16.11 16.9 16.12 16.8 16.12C16.7 16.12 16.6 16.12 16.5 16.12C16.4 16.12 16.32 16.13 16.26 16.15C16.2 16.17 16.16 16.22 16.14 16.3C16.14 16.36 16.11 16.41 16.05 16.45C15.97 16.53 15.87 16.59 15.75 16.63C15.63 16.65 15.52 16.68 15.42 16.72H15.39C15.35 16.72 15.29 16.7 15.21 16.66C15.15 16.62 15.1 16.61 15.06 16.63C15.04 16.65 15.02 16.7 15 16.78C14.98 16.86 14.95 16.91 14.91 16.93V16.96C14.79 17 14.66 17.05 14.52 17.11C14.38 17.17 14.25 17.23 14.13 17.29C14.01 17.35 13.87 17.42 13.71 17.5C13.57 17.56 13.45 17.6 13.35 17.62C13.31 17.62 13.29 17.58 13.29 17.5C13.31 17.42 13.3 17.4 13.26 17.44C13.14 17.5 13.02 17.61 12.9 17.77C12.78 17.93 12.67 18.04 12.57 18.1C12.47 18.18 12.36 18.22 12.24 18.22C12.14 18.22 12.04 18.26 11.94 18.34C11.88 18.4 11.82 18.5 11.76 18.64C11.72 18.76 11.67 18.85 11.61 18.91C11.45 19.07 11.29 19.26 11.13 19.48C11.11 19.52 11.08 19.56 11.04 19.6C11 19.64 10.98 19.69 10.98 19.75H10.95C10.83 19.99 10.77 20.22 10.77 20.44C10.77 20.88 10.93 21.2 11.25 21.4C11.59 21.6 11.97 21.75 12.39 21.85C12.47 21.87 12.54 21.9 12.6 21.94C12.68 21.98 12.76 21.99 12.84 21.97C12.92 21.93 12.99 21.91 13.05 21.91C13.15 21.91 13.23 21.95 13.29 22.03L13.74 22.12C13.98 22.18 14.1 22.24 14.1 22.3C14.1 22.34 14.04 22.38 13.92 22.42C13.82 22.44 13.72 22.45 13.62 22.45C13.26 22.45 12.82 22.38 12.3 22.24C11.78 22.08 11.31 21.85 10.89 21.55C10.47 21.25 10.23 20.86 10.17 20.38C10.17 20.36 10.14 20.31 10.08 20.23C10.04 20.15 10.01 20.08 9.99 20.02C9.93 19.84 9.9 19.66 9.9 19.48C9.9 19.14 9.97 18.82 10.11 18.52C10.27 18.22 10.48 17.94 10.74 17.68C10.84 17.58 10.93 17.51 11.01 17.47C11.11 17.43 11.22 17.37 11.34 17.29C11.46 17.21 11.52 17.14 11.52 17.08C11.52 17.02 11.58 16.95 11.7 16.87C11.86 16.77 12.08 16.65 12.36 16.51C12.66 16.37 12.89 16.26 13.05 16.18C13.17 16.18 13.28 16.13 13.38 16.03C13.78 15.85 14.2 15.69 14.64 15.55C15.08 15.39 15.52 15.24 15.96 15.1C16.04 15.08 16.11 15.06 16.17 15.04C16.23 15.02 16.29 15.01 16.35 15.01C16.43 15.01 16.51 15.04 16.59 15.1C16.59 15.06 16.58 15.03 16.56 15.01C16.56 14.97 16.58 14.94 16.62 14.92C17.12 14.76 17.61 14.61 18.09 14.47C18.59 14.31 19.08 14.23 19.56 14.23H19.59C19.63 14.23 19.67 14.22 19.71 14.2C19.77 14.18 19.82 14.17 19.86 14.17H19.89L20.1 14.14C20.22 14.2 20.34 14.18 20.46 14.08C21 13.98 21.5 13.91 21.96 13.87C22.42 13.81 22.81 13.78 23.13 13.78H23.25C23.35 13.78 23.43 13.77 23.49 13.75H23.79C23.85 13.73 23.91 13.73 23.97 13.75C24.05 13.75 24.11 13.75 24.15 13.75H24.18C24.42 13.75 24.67 13.76 24.93 13.78C25.21 13.78 25.49 13.78 25.77 13.78H25.8C25.88 13.78 25.94 13.81 25.98 13.87C26.04 13.91 26.11 13.89 26.19 13.81C26.73 13.83 27.27 13.89 27.81 13.99C28.21 14.05 28.67 14.17 29.19 14.35C29.73 14.53 30.2 14.81 30.6 15.19C31 15.55 31.2 16.06 31.2 16.72C31.2 17.04 31.16 17.33 31.08 17.59C31.02 17.83 30.9 18.05 30.72 18.25C30.56 18.45 30.37 18.65 30.15 18.85C30.09 18.91 30.03 18.98 29.97 19.06C29.91 19.14 29.84 19.21 29.76 19.27C29.74 19.29 29.7 19.31 29.64 19.33C29.6 19.33 29.56 19.34 29.52 19.36C29.48 19.4 29.44 19.43 29.4 19.45C29.36 19.47 29.31 19.5 29.25 19.54C28.59 19.98 28.02 20.31 27.54 20.53C27.08 20.73 26.47 20.96 25.71 21.22C25.47 21.3 25.3 21.35 25.2 21.37C25.1 21.37 25.02 21.39 24.96 21.43C24.46 21.57 23.89 21.77 23.25 22.03C22.61 22.29 22.06 22.46 21.6 22.54C21.56 22.56 21.43 22.59 21.21 22.63C21.01 22.65 20.81 22.66 20.61 22.66ZM29.58 31.63C29.56 31.63 29.49 31.63 29.37 31.63C29.25 31.63 29.18 31.62 29.16 31.6C29.08 31.56 29.05 31.5 29.07 31.42C29.09 31.34 29.06 31.3 28.98 31.3C28.9 31.3 28.85 31.33 28.83 31.39C28.81 31.47 28.75 31.51 28.65 31.51H28.62C28.52 31.51 28.43 31.46 28.35 31.36C28.29 31.26 28.22 31.23 28.14 31.27C28.02 31.33 27.92 31.36 27.84 31.36C27.7 31.36 27.59 31.31 27.51 31.21C27.43 31.11 27.32 31.02 27.18 30.94C27.16 30.94 27.12 30.95 27.06 30.97C27.02 30.99 26.98 30.99 26.94 30.97C26.92 30.95 26.76 30.86 26.46 30.7C26.16 30.56 25.86 30.41 25.56 30.25C25.26 30.09 25.08 29.99 25.02 29.95C24.96 29.81 24.9 29.73 24.84 29.71C24.8 29.69 24.71 29.68 24.57 29.68C24.49 29.62 24.38 29.55 24.24 29.47C24.12 29.41 24.04 29.33 24 29.23C23.74 29.13 23.51 29.01 23.31 28.87C23.11 28.73 22.9 28.57 22.68 28.39C22.64 28.35 22.59 28.32 22.53 28.3C22.47 28.28 22.42 28.25 22.38 28.21L21.57 27.61C21.53 27.49 21.38 27.36 21.12 27.22C20.86 27.06 20.68 26.91 20.58 26.77C20.56 26.75 20.55 26.73 20.55 26.71C20.55 26.61 20.5 26.56 20.4 26.56C20.34 26.56 20.28 26.56 20.22 26.56C20.16 26.56 20.13 26.52 20.13 26.44C20.07 26.3 19.92 26.14 19.68 25.96C19.44 25.76 19.22 25.56 19.02 25.36C18.82 25.16 18.75 24.99 18.81 24.85C18.73 24.83 18.65 24.82 18.57 24.82C18.49 24.82 18.43 24.79 18.39 24.73C18.31 24.57 18.21 24.44 18.09 24.34C18.03 24.3 17.97 24.24 17.91 24.16L17.76 24.46C17.68 24.58 17.6 24.72 17.52 24.88C17.44 25.04 17.35 25.21 17.25 25.39L16.98 25.93C16.96 25.99 16.93 26.02 16.89 26.02C16.87 26 16.84 25.99 16.8 25.99C16.84 26.07 16.86 26.14 16.86 26.2C16.86 26.36 16.77 26.53 16.59 26.71C16.33 27.31 16.09 27.88 15.87 28.42C15.65 28.96 15.48 29.46 15.36 29.92C15.32 30.08 15.26 30.16 15.18 30.16C15.04 30.16 14.97 30.01 14.97 29.71C14.97 29.43 15.08 28.99 15.3 28.39L15.27 28.42C15.25 28.42 15.18 28.44 15.06 28.48C14.94 28.52 14.86 28.53 14.82 28.51C14.56 28.51 14.43 28.42 14.43 28.24C14.43 27.76 14.53 27.26 14.73 26.74L15.51 24.7C15.55 24.64 15.57 24.58 15.57 24.52C15.59 24.46 15.61 24.4 15.63 24.34L15.66 24.31V24.28L15.78 23.65C15.82 23.47 15.84 23.31 15.84 23.17C15.86 23.03 15.87 22.86 15.87 22.66C15.87 22.6 15.9 22.56 15.96 22.54C15.96 22.4 15.97 22.27 15.99 22.15C16.01 22.01 16.02 21.87 16.02 21.73V21.58C16 21.56 15.99 21.52 15.99 21.46C15.99 21.42 15.98 21.38 15.96 21.34C15.96 21.3 15.96 21.26 15.96 21.22C15.96 21.2 15.96 21.19 15.96 21.19C15.98 21.17 15.99 21.15 15.99 21.13C16.03 20.89 16.1 20.67 16.2 20.47C16.32 20.27 16.45 20.22 16.59 20.32C16.63 20.34 16.7 20.46 16.8 20.68C16.92 20.9 17.02 21.06 17.1 21.16C17.18 21.36 17.28 21.55 17.4 21.73C17.52 21.89 17.62 22.07 17.7 22.27C17.76 22.37 17.79 22.45 17.79 22.51C17.79 22.55 17.86 22.59 18 22.63C18.58 21.59 19.16 20.6 19.74 19.66C20.34 18.7 20.9 17.96 21.42 17.44L21.51 17.38L21.6 17.23C21.6 17.23 21.62 17.22 21.66 17.2C21.7 17.18 21.73 17.19 21.75 17.23C21.75 17.25 21.73 17.29 21.69 17.35C21.67 17.41 21.66 17.45 21.66 17.47C21.72 17.57 21.79 17.58 21.87 17.5C21.89 17.46 21.89 17.37 21.87 17.23C21.85 17.09 21.85 17.02 21.87 17.02C21.91 17 21.93 17 21.93 17.02C21.95 17.04 21.97 17.05 21.99 17.05C22.03 17.05 22.05 17.02 22.05 16.96C22.05 16.9 22.06 16.86 22.08 16.84C22.3 16.76 22.5 16.72 22.68 16.72C22.78 16.72 22.92 16.77 23.1 16.87C23.3 16.97 23.4 17.11 23.4 17.29C23.4 17.39 23.35 17.51 23.25 17.65C23.23 17.67 23.21 17.71 23.19 17.77C23.17 17.81 23.14 17.85 23.1 17.89C23.08 17.91 23.06 17.92 23.04 17.92C23.04 17.9 23.02 17.9 22.98 17.92C22.96 17.94 22.93 17.95 22.89 17.95C22.87 17.93 22.84 17.92 22.8 17.92C22.76 17.92 22.75 17.95 22.77 18.01C22.81 18.07 22.82 18.11 22.8 18.13C22.78 18.15 22.76 18.15 22.74 18.13C22.72 18.11 22.69 18.12 22.65 18.16C22.63 18.18 22.64 18.2 22.68 18.22C22.74 18.22 22.75 18.24 22.71 18.28C22.59 18.4 22.44 18.53 22.26 18.67C22.1 18.79 21.94 18.91 21.78 19.03C21.76 19.05 21.74 19.05 21.72 19.03C21.7 18.99 21.68 18.98 21.66 19L21.45 19.3C21.25 19.5 21.05 19.71 20.85 19.93C20.65 20.15 20.44 20.4 20.22 20.68C20.16 20.8 20.09 20.91 20.01 21.01C19.93 21.11 19.82 21.15 19.68 21.13C19.68 21.15 19.7 21.18 19.74 21.22C19.78 21.24 19.78 21.28 19.74 21.34C19.3 21.94 18.89 22.56 18.51 23.2L19.14 23.98C19.2 24.06 19.23 24.15 19.23 24.25C19.23 24.33 19.25 24.38 19.29 24.4C19.33 24.4 19.36 24.39 19.38 24.37C19.42 24.35 19.45 24.34 19.47 24.34C19.53 24.34 19.58 24.39 19.62 24.49C19.68 24.57 19.74 24.64 19.8 24.7C19.88 24.78 19.96 24.86 20.04 24.94C20.14 25.02 20.24 25.11 20.34 25.21V25.24C20.42 25.3 20.55 25.41 20.73 25.57C20.91 25.73 21.08 25.89 21.24 26.05C21.4 26.19 21.49 26.3 21.51 26.38C21.55 26.46 21.61 26.51 21.69 26.53C21.77 26.55 21.84 26.58 21.9 26.62C22.06 26.74 22.22 26.86 22.38 26.98C22.56 27.1 22.73 27.23 22.89 27.37C22.95 27.41 22.97 27.45 22.95 27.49C22.95 27.53 22.96 27.57 22.98 27.61C23.02 27.63 23.09 27.66 23.19 27.7C23.31 27.72 23.4 27.75 23.46 27.79C23.92 28.09 24.38 28.38 24.84 28.66C25.3 28.96 25.78 29.24 26.28 29.5C26.8 29.76 27.33 29.99 27.87 30.19C28.41 30.39 28.98 30.49 29.58 30.49C30.06 30.49 30.52 30.4 30.96 30.22C31.42 30.04 31.65 29.71 31.65 29.23C31.65 29.07 31.62 28.9 31.56 28.72C31.54 28.62 31.5 28.51 31.44 28.39C31.4 28.27 31.33 28.18 31.23 28.12C31.17 28 31.06 27.92 30.9 27.88C30.8 27.78 30.71 27.68 30.63 27.58C30.55 27.46 30.43 27.41 30.27 27.43C30.21 27.37 30.18 27.31 30.18 27.25C30.18 27.17 30.21 27.11 30.27 27.07C30.35 27.01 30.44 27 30.54 27.04C30.68 27.12 30.79 27.23 30.87 27.37C30.97 27.49 31.1 27.56 31.26 27.58L31.41 27.73C31.47 27.83 31.53 27.91 31.59 27.97C31.67 28.03 31.74 28.11 31.8 28.21C31.86 28.29 31.92 28.4 31.98 28.54C32.06 28.7 32.11 28.83 32.13 28.93C32.17 29.01 32.18 29.09 32.16 29.17C32.16 29.25 32.19 29.34 32.25 29.44C32.29 30.06 32.09 30.56 31.65 30.94C31.21 31.34 30.7 31.56 30.12 31.6C30.06 31.56 30 31.53 29.94 31.51C29.9 31.49 29.86 31.48 29.82 31.48C29.76 31.48 29.68 31.53 29.58 31.63ZM15.69 27.43C15.73 27.45 15.75 27.45 15.75 27.43C15.77 27.39 15.78 27.37 15.78 27.37C15.82 27.31 15.84 27.25 15.84 27.19C15.84 27.11 15.85 27.04 15.87 26.98C16.23 26.08 16.69 25.1 17.25 24.04C17.29 23.96 17.33 23.94 17.37 23.98C17.43 24 17.47 23.99 17.49 23.95C17.53 23.91 17.54 23.86 17.52 23.8C17.52 23.74 17.52 23.69 17.52 23.65C17.5 23.61 17.47 23.58 17.43 23.56C17.39 23.54 17.36 23.51 17.34 23.47C17.26 23.25 17.15 23.11 17.01 23.05C16.89 22.97 16.8 22.85 16.74 22.69C16.66 22.51 16.58 22.38 16.5 22.3C16.44 22.2 16.36 22.08 16.26 21.94L16.17 22.96C16.15 23.16 16.12 23.39 16.08 23.65C16.06 23.91 16.01 24.15 15.93 24.37C15.91 24.43 15.9 24.52 15.9 24.64V24.97C15.9 25.01 15.89 25.06 15.87 25.12C15.87 25.18 15.87 25.24 15.87 25.3L15.81 25.9C15.79 26.1 15.76 26.31 15.72 26.53C15.68 26.73 15.66 26.92 15.66 27.1C15.66 27.26 15.67 27.37 15.69 27.43Z" fill="white"/>
<defs>
<linearGradient id="paint0_linear_102_47" x1="37.931" y1="37.7143" x2="9.21182" y2="4.44335" gradientUnits="userSpaceOnUse">
<stop stop-color="#E6007E" stop-opacity="0.71"/>
<stop offset="1" stop-color="#009FE3"/>
</linearGradient>
</defs>
</svg>
