<svg width="52" height="52" viewBox="0 0 52 52" fill="none" xmlns="http://www.w3.org/2000/svg">
<g filter="url(#filter0_d_102_47)">
<circle cx="26" cy="22" r="22" fill="url(#paint0_linear_102_47)"/>
<path d="M24.61 22.66C24.47 22.66 24.36 22.64 24.28 22.6C24.1 22.52 24.01 22.48 24.01 22.48C24.01 22.46 24.1 22.39 24.28 22.27C24.42 22.19 24.58 22.16 24.76 22.18C24.96 22.2 25.1 22.2 25.18 22.18C25.66 22.08 26.24 21.94 26.92 21.76C27.6 21.58 28.39 21.22 29.29 20.68L30.46 19.99C30.56 19.93 30.63 19.94 30.67 20.02C30.63 20.04 30.61 20.09 30.61 20.17C30.75 20.17 30.83 20.12 30.85 20.02C30.89 19.9 30.93 19.79 30.97 19.69H31L31.66 19.27C31.76 19.25 31.85 19.26 31.93 19.3C32.03 19.34 32.12 19.33 32.2 19.27C32.16 19.19 32.12 19.14 32.08 19.12C32.04 19.08 32.06 19.03 32.14 18.97L32.26 18.88C32.42 18.78 32.56 18.71 32.68 18.67C32.82 18.61 32.92 18.5 32.98 18.34C33.38 17.98 33.72 17.62 34 17.26C34.28 16.9 34.42 16.56 34.42 16.24C34.42 15.9 34.23 15.61 33.85 15.37C33.49 15.11 32.84 14.92 31.9 14.8L31.66 14.77C31.52 14.75 31.39 14.73 31.27 14.71C31.15 14.69 31.03 14.65 30.91 14.59C30.93 14.67 30.89 14.71 30.79 14.71C30.51 14.69 30.23 14.68 29.95 14.68C29.67 14.66 29.4 14.65 29.14 14.65C28.7 14.65 28.29 14.66 27.91 14.68C27.55 14.7 27.29 14.72 27.13 14.74L26.14 14.86C26.02 14.82 25.9 14.84 25.78 14.92H25.75C25.61 14.92 25.47 14.94 25.33 14.98C25.19 15 25.04 15.03 24.88 15.07C24.8 15.09 24.71 15.11 24.61 15.13C24.51 15.13 24.41 15.15 24.31 15.19L23.71 15.31C23.57 15.41 23.39 15.46 23.17 15.46H23.14L22.57 15.61H22.54C22.46 15.61 22.39 15.57 22.33 15.49C22.27 15.39 22.23 15.3 22.21 15.22C22.19 15.34 22.16 15.47 22.12 15.61C22.08 15.75 22.01 15.82 21.91 15.82L21.07 16.09C20.99 16.11 20.9 16.12 20.8 16.12C20.7 16.12 20.6 16.12 20.5 16.12C20.4 16.12 20.32 16.13 20.26 16.15C20.2 16.17 20.16 16.22 20.14 16.3C20.14 16.36 20.11 16.41 20.05 16.45C19.97 16.53 19.87 16.59 19.75 16.63C19.63 16.65 19.52 16.68 19.42 16.72H19.39C19.35 16.72 19.29 16.7 19.21 16.66C19.15 16.62 19.1 16.61 19.06 16.63C19.04 16.65 19.02 16.7 19 16.78C18.98 16.86 18.95 16.91 18.91 16.93V16.96C18.79 17 18.66 17.05 18.52 17.11C18.38 17.17 18.25 17.23 18.13 17.29C18.01 17.35 17.87 17.42 17.71 17.5C17.57 17.56 17.45 17.6 17.35 17.62C17.31 17.62 17.29 17.58 17.29 17.5C17.31 17.42 17.3 17.4 17.26 17.44C17.14 17.5 17.02 17.61 16.9 17.77C16.78 17.93 16.67 18.04 16.57 18.1C16.47 18.18 16.36 18.22 16.24 18.22C16.14 18.22 16.04 18.26 15.94 18.34C15.88 18.4 15.82 18.5 15.76 18.64C15.72 18.76 15.67 18.85 15.61 18.91C15.45 19.07 15.29 19.26 15.13 19.48C15.11 19.52 15.08 19.56 15.04 19.6C15 19.64 14.98 19.69 14.98 19.75H14.95C14.83 19.99 14.77 20.22 14.77 20.44C14.77 20.88 14.93 21.2 15.25 21.4C15.59 21.6 15.97 21.75 16.39 21.85C16.47 21.87 16.54 21.9 16.6 21.94C16.68 21.98 16.76 21.99 16.84 21.97C16.92 21.93 16.99 21.91 17.05 21.91C17.15 21.91 17.23 21.95 17.29 22.03L17.74 22.12C17.98 22.18 18.1 22.24 18.1 22.3C18.1 22.34 18.04 22.38 17.92 22.42C17.82 22.44 17.72 22.45 17.62 22.45C17.26 22.45 16.82 22.38 16.3 22.24C15.78 22.08 15.31 21.85 14.89 21.55C14.47 21.25 14.23 20.86 14.17 20.38C14.17 20.36 14.14 20.31 14.08 20.23C14.04 20.15 14.01 20.08 13.99 20.02C13.93 19.84 13.9 19.66 13.9 19.48C13.9 19.14 13.97 18.82 14.11 18.52C14.27 18.22 14.48 17.94 14.74 17.68C14.84 17.58 14.93 17.51 15.01 17.47C15.11 17.43 15.22 17.37 15.34 17.29C15.46 17.21 15.52 17.14 15.52 17.08C15.52 17.02 15.58 16.95 15.7 16.87C15.86 16.77 16.08 16.65 16.36 16.51C16.66 16.37 16.89 16.26 17.05 16.18C17.17 16.18 17.28 16.13 17.38 16.03C17.78 15.85 18.2 15.69 18.64 15.55C19.08 15.39 19.52 15.24 19.96 15.1C20.04 15.08 20.11 15.06 20.17 15.04C20.23 15.02 20.29 15.01 20.35 15.01C20.43 15.01 20.51 15.04 20.59 15.1C20.59 15.06 20.58 15.03 20.56 15.01C20.56 14.97 20.58 14.94 20.62 14.92C21.12 14.76 21.61 14.61 22.09 14.47C22.59 14.31 23.08 14.23 23.56 14.23H23.59C23.63 14.23 23.67 14.22 23.71 14.2C23.77 14.18 23.82 14.17 23.86 14.17H23.89L24.1 14.14C24.22 14.2 24.34 14.18 24.46 14.08C25 13.98 25.5 13.91 25.96 13.87C26.42 13.81 26.81 13.78 27.13 13.78H27.25C27.35 13.78 27.43 13.77 27.49 13.75H27.79C27.85 13.73 27.91 13.73 27.97 13.75C28.05 13.75 28.11 13.75 28.15 13.75H28.18C28.42 13.75 28.67 13.76 28.93 13.78C29.21 13.78 29.49 13.78 29.77 13.78H29.8C29.88 13.78 29.94 13.81 29.98 13.87C30.04 13.91 30.11 13.89 30.19 13.81C30.73 13.83 31.27 13.89 31.81 13.99C32.21 14.05 32.67 14.17 33.19 14.35C33.73 14.53 34.2 14.81 34.6 15.19C35 15.55 35.2 16.06 35.2 16.72C35.2 17.04 35.16 17.33 35.08 17.59C35.02 17.83 34.9 18.05 34.72 18.25C34.56 18.45 34.37 18.65 34.15 18.85C34.09 18.91 34.03 18.98 33.97 19.06C33.91 19.14 33.84 19.21 33.76 19.27C33.74 19.29 33.7 19.31 33.64 19.33C33.6 19.33 33.56 19.34 33.52 19.36C33.48 19.4 33.44 19.43 33.4 19.45C33.36 19.47 33.31 19.5 33.25 19.54C32.59 19.98 32.02 20.31 31.54 20.53C31.08 20.73 30.47 20.96 29.71 21.22C29.47 21.3 29.3 21.35 29.2 21.37C29.1 21.37 29.02 21.39 28.96 21.43C28.46 21.57 27.89 21.77 27.25 22.03C26.61 22.29 26.06 22.46 25.6 22.54C25.56 22.56 25.43 22.59 25.21 22.63C25.01 22.65 24.81 22.66 24.61 22.66ZM33.58 31.63C33.56 31.63 33.49 31.63 33.37 31.63C33.25 31.63 33.18 31.62 33.16 31.6C33.08 31.56 33.05 31.5 33.07 31.42C33.09 31.34 33.06 31.3 32.98 31.3C32.9 31.3 32.85 31.33 32.83 31.39C32.81 31.47 32.75 31.51 32.65 31.51H32.62C32.52 31.51 32.43 31.46 32.35 31.36C32.29 31.26 32.22 31.23 32.14 31.27C32.02 31.33 31.92 31.36 31.84 31.36C31.7 31.36 31.59 31.31 31.51 31.21C31.43 31.11 31.32 31.02 31.18 30.94C31.16 30.94 31.12 30.95 31.06 30.97C31.02 30.99 30.98 30.99 30.94 30.97C30.92 30.95 30.76 30.86 30.46 30.7C30.16 30.56 29.86 30.41 29.56 30.25C29.26 30.09 29.08 29.99 29.02 29.95C28.96 29.81 28.9 29.73 28.84 29.71C28.8 29.69 28.71 29.68 28.57 29.68C28.49 29.62 28.38 29.55 28.24 29.47C28.12 29.41 28.04 29.33 28 29.23C27.74 29.13 27.51 29.01 27.31 28.87C27.11 28.73 26.9 28.57 26.68 28.39C26.64 28.35 26.59 28.32 26.53 28.3C26.47 28.28 26.42 28.25 26.38 28.21L25.57 27.61C25.53 27.49 25.38 27.36 25.12 27.22C24.86 27.06 24.68 26.91 24.58 26.77C24.56 26.75 24.55 26.73 24.55 26.71C24.55 26.61 24.5 26.56 24.4 26.56C24.34 26.56 24.28 26.56 24.22 26.56C24.16 26.56 24.13 26.52 24.13 26.44C24.07 26.3 23.92 26.14 23.68 25.96C23.44 25.76 23.22 25.56 23.02 25.36C22.82 25.16 22.75 24.99 22.81 24.85C22.73 24.83 22.65 24.82 22.57 24.82C22.49 24.82 22.43 24.79 22.39 24.73C22.31 24.57 22.21 24.44 22.09 24.34C22.03 24.3 21.97 24.24 21.91 24.16L21.76 24.46C21.68 24.58 21.6 24.72 21.52 24.88C21.44 25.04 21.35 25.21 21.25 25.39L20.98 25.93C20.96 25.99 20.93 26.02 20.89 26.02C20.87 26 20.84 25.99 20.8 25.99C20.84 26.07 20.86 26.14 20.86 26.2C20.86 26.36 20.77 26.53 20.59 26.71C20.33 27.31 20.09 27.88 19.87 28.42C19.65 28.96 19.48 29.46 19.36 29.92C19.32 30.08 19.26 30.16 19.18 30.16C19.04 30.16 18.97 30.01 18.97 29.71C18.97 29.43 19.08 28.99 19.3 28.39L19.27 28.42C19.25 28.42 19.18 28.44 19.06 28.48C18.94 28.52 18.86 28.53 18.82 28.51C18.56 28.51 18.43 28.42 18.43 28.24C18.43 27.76 18.53 27.26 18.73 26.74L19.51 24.7C19.55 24.64 19.57 24.58 19.57 24.52C19.59 24.46 19.61 24.4 19.63 24.34L19.66 24.31V24.28L19.78 23.65C19.82 23.47 19.84 23.31 19.84 23.17C19.86 23.03 19.87 22.86 19.87 22.66C19.87 22.6 19.9 22.56 19.96 22.54C19.96 22.4 19.97 22.27 19.99 22.15C20.01 22.01 20.02 21.87 20.02 21.73V21.58C20 21.56 19.99 21.52 19.99 21.46C19.99 21.42 19.98 21.38 19.96 21.34C19.96 21.3 19.96 21.26 19.96 21.22C19.96 21.2 19.96 21.19 19.96 21.19C19.98 21.17 19.99 21.15 19.99 21.13C20.03 20.89 20.1 20.67 20.2 20.47C20.32 20.27 20.45 20.22 20.59 20.32C20.63 20.34 20.7 20.46 20.8 20.68C20.92 20.9 21.02 21.06 21.1 21.16C21.18 21.36 21.28 21.55 21.4 21.73C21.52 21.89 21.62 22.07 21.7 22.27C21.76 22.37 21.79 22.45 21.79 22.51C21.79 22.55 21.86 22.59 22 22.63C22.58 21.59 23.16 20.6 23.74 19.66C24.34 18.7 24.9 17.96 25.42 17.44L25.51 17.38L25.6 17.23C25.6 17.23 25.62 17.22 25.66 17.2C25.7 17.18 25.73 17.19 25.75 17.23C25.75 17.25 25.73 17.29 25.69 17.35C25.67 17.41 25.66 17.45 25.66 17.47C25.72 17.57 25.79 17.58 25.87 17.5C25.89 17.46 25.89 17.37 25.87 17.23C25.85 17.09 25.85 17.02 25.87 17.02C25.91 17 25.93 17 25.93 17.02C25.95 17.04 25.97 17.05 25.99 17.05C26.03 17.05 26.05 17.02 26.05 16.96C26.05 16.9 26.06 16.86 26.08 16.84C26.3 16.76 26.5 16.72 26.68 16.72C26.78 16.72 26.92 16.77 27.1 16.87C27.3 16.97 27.4 17.11 27.4 17.29C27.4 17.39 27.35 17.51 27.25 17.65C27.23 17.67 27.21 17.71 27.19 17.77C27.17 17.81 27.14 17.85 27.1 17.89C27.08 17.91 27.06 17.92 27.04 17.92C27.04 17.9 27.02 17.9 26.98 17.92C26.96 17.94 26.93 17.95 26.89 17.95C26.87 17.93 26.84 17.92 26.8 17.92C26.76 17.92 26.75 17.95 26.77 18.01C26.81 18.07 26.82 18.11 26.8 18.13C26.78 18.15 26.76 18.15 26.74 18.13C26.72 18.11 26.69 18.12 26.65 18.16C26.63 18.18 26.64 18.2 26.68 18.22C26.74 18.22 26.75 18.24 26.71 18.28C26.59 18.4 26.44 18.53 26.26 18.67C26.1 18.79 25.94 18.91 25.78 19.03C25.76 19.05 25.74 19.05 25.72 19.03C25.7 18.99 25.68 18.98 25.66 19L25.45 19.3C25.25 19.5 25.05 19.71 24.85 19.93C24.65 20.15 24.44 20.4 24.22 20.68C24.16 20.8 24.09 20.91 24.01 21.01C23.93 21.11 23.82 21.15 23.68 21.13C23.68 21.15 23.7 21.18 23.74 21.22C23.78 21.24 23.78 21.28 23.74 21.34C23.3 21.94 22.89 22.56 22.51 23.2L23.14 23.98C23.2 24.06 23.23 24.15 23.23 24.25C23.23 24.33 23.25 24.38 23.29 24.4C23.33 24.4 23.36 24.39 23.38 24.37C23.42 24.35 23.45 24.34 23.47 24.34C23.53 24.34 23.58 24.39 23.62 24.49C23.68 24.57 23.74 24.64 23.8 24.7C23.88 24.78 23.96 24.86 24.04 24.94C24.14 25.02 24.24 25.11 24.34 25.21V25.24C24.42 25.3 24.55 25.41 24.73 25.57C24.91 25.73 25.08 25.89 25.24 26.05C25.4 26.19 25.49 26.3 25.51 26.38C25.55 26.46 25.61 26.51 25.69 26.53C25.77 26.55 25.84 26.58 25.9 26.62C26.06 26.74 26.22 26.86 26.38 26.98C26.56 27.1 26.73 27.23 26.89 27.37C26.95 27.41 26.97 27.45 26.95 27.49C26.95 27.53 26.96 27.57 26.98 27.61C27.02 27.63 27.09 27.66 27.19 27.7C27.31 27.72 27.4 27.75 27.46 27.79C27.92 28.09 28.38 28.38 28.84 28.66C29.3 28.96 29.78 29.24 30.28 29.5C30.8 29.76 31.33 29.99 31.87 30.19C32.41 30.39 32.98 30.49 33.58 30.49C34.06 30.49 34.52 30.4 34.96 30.22C35.42 30.04 35.65 29.71 35.65 29.23C35.65 29.07 35.62 28.9 35.56 28.72C35.54 28.62 35.5 28.51 35.44 28.39C35.4 28.27 35.33 28.18 35.23 28.12C35.17 28 35.06 27.92 34.9 27.88C34.8 27.78 34.71 27.68 34.63 27.58C34.55 27.46 34.43 27.41 34.27 27.43C34.21 27.37 34.18 27.31 34.18 27.25C34.18 27.17 34.21 27.11 34.27 27.07C34.35 27.01 34.44 27 34.54 27.04C34.68 27.12 34.79 27.23 34.87 27.37C34.97 27.49 35.1 27.56 35.26 27.58L35.41 27.73C35.47 27.83 35.53 27.91 35.59 27.97C35.67 28.03 35.74 28.11 35.8 28.21C35.86 28.29 35.92 28.4 35.98 28.54C36.06 28.7 36.11 28.83 36.13 28.93C36.17 29.01 36.18 29.09 36.16 29.17C36.16 29.25 36.19 29.34 36.25 29.44C36.29 30.06 36.09 30.56 35.65 30.94C35.21 31.34 34.7 31.56 34.12 31.6C34.06 31.56 34 31.53 33.94 31.51C33.9 31.49 33.86 31.48 33.82 31.48C33.76 31.48 33.68 31.53 33.58 31.63ZM19.69 27.43C19.73 27.45 19.75 27.45 19.75 27.43C19.77 27.39 19.78 27.37 19.78 27.37C19.82 27.31 19.84 27.25 19.84 27.19C19.84 27.11 19.85 27.04 19.87 26.98C20.23 26.08 20.69 25.1 21.25 24.04C21.29 23.96 21.33 23.94 21.37 23.98C21.43 24 21.47 23.99 21.49 23.95C21.53 23.91 21.54 23.86 21.52 23.8C21.52 23.74 21.52 23.69 21.52 23.65C21.5 23.61 21.47 23.58 21.43 23.56C21.39 23.54 21.36 23.51 21.34 23.47C21.26 23.25 21.15 23.11 21.01 23.05C20.89 22.97 20.8 22.85 20.74 22.69C20.66 22.51 20.58 22.38 20.5 22.3C20.44 22.2 20.36 22.08 20.26 21.94L20.17 22.96C20.15 23.16 20.12 23.39 20.08 23.65C20.06 23.91 20.01 24.15 19.93 24.37C19.91 24.43 19.9 24.52 19.9 24.64V24.97C19.9 25.01 19.89 25.06 19.87 25.12C19.87 25.18 19.87 25.24 19.87 25.3L19.81 25.9C19.79 26.1 19.76 26.31 19.72 26.53C19.68 26.73 19.66 26.92 19.66 27.1C19.66 27.26 19.67 27.37 19.69 27.43Z" fill="white"/>
</g>
<defs>
<filter id="filter0_d_102_47" x="0" y="0" width="52" height="52" filterUnits="userSpaceOnUse" color-interpolation-filters="sRGB">
<feFlood flood-opacity="0" result="BackgroundImageFix"/>
<feColorMatrix in="SourceAlpha" type="matrix" values="0 0 0 0 0 0 0 0 0 0 0 0 0 0 0 0 0 0 127 0" result="hardAlpha"/>
<feOffset dy="4"/>
<feGaussianBlur stdDeviation="2"/>
<feComposite in2="hardAlpha" operator="out"/>
<feColorMatrix type="matrix" values="0 0 0 0 0 0 0 0 0 0 0 0 0 0 0 0 0 0 0.25 0"/>
<feBlend mode="normal" in2="BackgroundImageFix" result="effect1_dropShadow_102_47"/>
<feBlend mode="normal" in="SourceGraphic" in2="effect1_dropShadow_102_47" result="shape"/>
</filter>
<linearGradient id="paint0_linear_102_47" x1="41.931" y1="37.7143" x2="13.2118" y2="4.44335" gradientUnits="userSpaceOnUse">
<stop stop-color="#E6007E" stop-opacity="0.71"/>
<stop offset="1" stop-color="#009FE3"/>
</linearGradient>
</defs>
</svg>
