<svg width="28" height="28" viewBox="0 0 28 28" fill="none" xmlns="http://www.w3.org/2000/svg">
<path d="M28 7.78593C27.9906 7.74882 27.9906 7.71043 28 7.67332C27.9919 7.64083 27.9919 7.60727 28 7.57478V7.4481L27.9005 7.23695C27.8601 7.17934 27.8098 7.12715 27.7513 7.08211L27.6021 6.9695H27.5192L20.9864 3.46447L14.8185 0.226897C14.6758 0.130797 14.5125 0.059092 14.3376 0.0157503H14.205C14.0568 -0.0052501 13.9055 -0.0052501 13.7573 0.0157503H13.5915C13.3989 0.0519157 13.2143 0.113674 13.0444 0.198744L0.658719 6.74428L0.509495 6.84281L0.36027 6.95542L0.194465 7.05396L0.111562 7.13841L0.0120786 7.34956V7.47625V7.56071C-0.00402621 7.65405 -0.00402621 7.74889 0.0120786 7.84224V20.1309C0.0115148 20.3702 0.0827716 20.6056 0.219122 20.8149C0.355472 21.0243 0.552417 21.2007 0.791363 21.3274L13.2268 27.8589L13.4755 27.9433H13.6081C13.8886 28.0189 14.1898 28.0189 14.4703 27.9433H14.6029L14.8516 27.8589L27.1876 21.426C27.4265 21.2992 27.6234 21.1228 27.7598 20.9134C27.8961 20.7041 27.9674 20.4687 27.9668 20.2295V7.94077C27.9668 7.94077 28 7.84224 28 7.78593ZM13.9231 3.07033L16.8745 4.61874L7.60596 9.48917L4.63804 7.94077L13.9231 3.07033ZM12.2651 24.1849L3.1458 19.4553V10.4604L12.2651 15.2464V24.1849ZM13.9231 12.769L10.7563 11.1502L20.0248 6.26568L23.2082 7.94077L13.9231 12.769ZM24.7005 19.413L15.5812 24.2272V15.2464L24.7005 10.4604V19.413Z" fill="white"/>
</svg>
